<svg width="298" height="298" viewBox="0 0 298 298" fill="none" xmlns="http://www.w3.org/2000/svg">
<g clip-path="url(#clip0_196_313)">
<path d="M37.3601 0V37.3601H0V298H298V0H37.3601Z" fill="#01E88A"/>
<path d="M37.3601 0L0 37.3601H37.3601V0Z" fill="url(#paint0_linear_196_313)"/>
<path d="M37.3601 0L0 37.3601H37.3601V0Z" fill="#03C277"/>
<path d="M109.493 140.32C110.293 141.962 113.249 135.97 113.572 135.331C116.63 129.012 119.052 122.31 120.561 115.48C121.888 112.041 126.903 111.093 130.182 110.713C137.544 110.01 145.78 111.092 152.323 114.641C153.149 115.12 153.981 115.704 154.673 116.409C155.252 117.021 155.763 117.719 156.349 118.33C159.283 121.516 162.744 124.194 166.22 126.827C167.092 127.5 168.009 128.156 168.821 128.926C168.894 129 168.973 129.085 169.046 129.165L169.425 129.961C169.414 129.897 169.421 129.949 169.463 130.024C169.505 130.1 169.575 130.205 169.659 130.314C169.829 130.533 170.059 130.775 170.31 131.007C172.68 133.121 176.89 135.178 180.109 134.67C180.773 134.564 181.322 134.263 181.9 133.963C187.275 130.942 193.378 124.606 194.463 118.48L194.475 119.063C194.478 119.1 194.5 119.152 194.497 119.152C194.497 119.155 194.505 119.166 194.502 119.163C194.492 119.139 194.465 119.093 194.432 119.038C194.367 118.932 194.271 118.798 194.167 118.661C193.957 118.383 193.706 118.084 193.449 117.782C192.354 116.505 191.093 115.107 190.341 113.544C187.807 108.568 185.007 101.342 187.164 95.8309C187.309 95.4724 187.547 94.997 187.713 94.6432C190.295 89.2548 189.847 86.3307 189.088 80.6259L190.974 80.6244C193.827 80.6368 196.487 79.0984 198.423 77.0784C200.096 75.3046 201.971 73.5885 204.314 72.6798L203.857 75.448C201.798 73.7973 199.464 72.3618 197.154 71.065C196.278 70.588 195.297 70.0487 194.414 69.7681C193.19 69.6216 191.884 69.5905 190.647 69.6964C190.566 69.7011 190.418 69.7261 190.352 69.7385L188.28 69.9599C188.267 69.2803 188.29 67.6218 188.28 66.9422V65.9244L189.237 65.4615C189.334 65.4163 189.529 65.3197 189.625 65.2713C192.924 63.5521 198.391 59.9344 197.942 55.8585L197.999 56.125C197.894 55.7743 197.742 55.5311 197.635 55.4392C197.484 55.2724 197.17 55.2786 196.93 55.2755C196.915 55.2755 196.957 55.2755 196.975 55.2755L197.043 55.2724C197.092 55.2677 197.118 55.2646 197.154 55.2584L197.242 55.2412C197.442 55.1882 197.467 55.1586 197.486 55.1524C196.883 55.6059 196.33 56.164 195.7 56.6892C194.367 57.838 192.77 58.9758 191.046 59.6102C186.842 61.211 182.505 62.2163 178.279 63.6254C177.858 63.7719 177.463 63.9044 177.077 64.0961L176.302 64.4063L175.845 64.3081C173.804 63.8654 172.25 63.0284 170.3 62.6418C169.03 62.3753 167.663 62.288 166.35 62.3223C162.069 62.3815 158.056 64.0618 153.735 64.6525C152.206 64.8723 150.644 64.9845 149.09 64.9378C144.489 64.69 140.134 63.3043 135.912 61.6536C134.986 61.278 134.07 60.879 133.156 60.4301C132.129 59.9048 131.159 59.4434 130.263 58.6251L131.441 59.1036C131.646 59.1052 131.791 59.0569 131.871 59.0257C131.932 59.0086 131.97 58.9774 132.013 58.9524C132.051 58.9259 132.027 58.94 131.998 58.9727C131.224 59.9703 131.008 61.5882 131.408 62.7494C131.922 64.3439 133.588 65.2932 135.175 65.767C135.616 65.9151 136.34 66.1832 136.79 66.3499C138.233 66.9189 139.661 67.4176 140.942 68.3949C142.117 69.2787 142.574 70.8218 141.584 72.0438C140.817 72.9572 139.771 73.3516 138.715 73.7475C135.804 74.8978 133.089 76.5609 130.509 78.3409C127.033 80.7787 123.836 83.6124 121.011 86.7609C118.876 89.1098 117.041 91.6941 115.366 94.3735C113.644 97.0326 112.134 99.8149 110.883 102.728C105.897 114.443 104.554 128.35 109.489 140.322L109.493 140.32ZM109.493 140.32C106.926 134.323 105.889 127.776 105.646 121.292C105.292 112.496 106.957 103.562 110.885 95.6158C112.325 92.581 114.23 89.7879 116.343 87.1693C118.432 84.5367 120.762 82.0895 123.285 79.8544C126.664 76.8711 130.344 74.2494 134.364 72.1358C135.47 71.5653 136.55 71.04 137.747 70.6083C138.148 70.4571 138.623 70.2732 138.942 70.0378C138.977 70.0113 138.988 69.9942 138.96 70.0284C138.934 70.0612 138.86 70.1609 138.817 70.3589C138.799 70.4524 138.793 70.5631 138.804 70.6581C138.817 70.7563 138.837 70.8312 138.863 70.8904C138.909 70.9995 138.937 71.0198 138.93 71.0135C138.923 71.0042 138.885 70.9683 138.831 70.9247C137.917 70.2638 136.693 69.8352 135.601 69.4065L134.846 69.1291L134.465 68.9919C133.132 68.568 131.805 68.0318 130.681 67.1433C128.368 65.3992 127.403 62.461 128.09 59.6913C128.474 58.1232 129.489 55.8959 131.443 55.8304L132.127 55.8242C132.453 56.1297 132.57 56.3074 132.953 56.5599C134.264 57.4015 135.724 58.0219 137.183 58.6267C140.593 59.9812 144.262 61.133 147.891 61.5663C149.683 61.7721 151.466 61.6645 153.252 61.4136C157.065 60.8774 160.739 59.4637 164.718 59.1286C166.817 58.9618 168.916 59.0117 170.991 59.4387C172.007 59.6429 173.034 59.9703 173.989 60.3101C174.926 60.6452 175.744 60.9366 176.542 61.1065L175.31 61.3185C175.412 61.2593 175.517 61.2032 175.62 61.1486L175.872 61.0302C176.831 60.6156 177.833 60.3147 178.812 60.0061C182.605 58.8184 186.493 57.8692 190.153 56.4289C191.411 55.9083 192.439 55.1212 193.513 54.2172C194.262 53.6077 194.962 52.8299 195.84 52.3031C195.979 52.2298 196.13 52.1394 196.467 52.0537L196.53 52.0397L196.607 52.0257C196.661 52.0179 196.702 52.0101 196.77 52.0054L196.864 52.0007H196.934H196.962H197.086C198.589 51.9727 200.048 52.7738 200.745 54.1112C200.971 54.5242 201.117 54.9077 201.236 55.3145L201.252 55.4485C201.923 61.3325 195.816 65.7327 191.16 68.1736C191.033 68.2391 190.787 68.3591 190.658 68.4199L191.615 66.9391V68.1487L189.544 66.5604C189.682 66.5308 189.839 66.4965 189.945 66.484C191.495 66.2892 193.019 66.339 194.578 66.4871C195.356 66.5463 196.172 66.8924 196.829 67.2025C199.45 68.4682 201.869 69.9677 204.246 71.6121C205.404 72.3758 207.04 73.8192 208.135 74.6998L205.551 75.7145C204.436 76.1478 203.488 76.8305 202.576 77.6255C201.833 78.2614 201.139 79.0345 200.437 79.7297C197.956 82.1659 194.576 83.9101 190.971 83.8929L192.625 82.0537C192.947 84.5039 193.23 87.2566 192.787 89.805C192.4 92.1867 191.511 94.4312 190.461 96.5853C189.147 99.2958 189.801 102.672 190.628 105.556C191.411 108.104 192.479 110.656 193.827 112.978C194.455 113.924 195.225 114.76 196.003 115.681C196.556 116.348 197.188 117.049 197.565 117.883C197.642 118.055 197.688 118.207 197.737 118.418L197.799 118.695C196.94 124.041 193.563 128.512 189.741 132.19C187.517 134.257 185.057 136.185 182.237 137.44C179.916 138.391 177.314 138.062 175.029 137.346C172.194 136.481 166.752 133.602 166.13 130.496L166.509 131.292C166.371 131.146 166.238 131.038 166.081 130.901C161.659 127.43 156.998 124.14 153.284 119.867C152.788 119.32 152.385 118.709 151.79 118.248C148.475 115.787 144.083 114.986 140.046 114.197C135.407 113.365 128.609 112.613 124.218 114.368C123.318 114.755 122.545 115.308 122.17 116.042L122.212 115.922C121.489 118.206 120.616 120.407 119.705 122.589C118.925 124.495 110.85 143.04 109.486 140.317L109.493 140.32Z" fill="white"/>
<path d="M198.165 152.913V157.977C198.762 156.259 199.583 154.537 200.656 152.913H198.165Z" fill="white"/>
<path d="M185.094 221.838V194.718C184.859 194.539 184.651 194.329 184.47 194.098C184.329 194.277 184.175 194.449 184 194.598V221.846C184.202 222.002 184.379 222.182 184.541 222.376C184.706 222.179 184.887 221.995 185.094 221.838Z" fill="white"/>
<path d="M137.882 184.123H134.757C134.049 184.919 133.033 185.416 131.899 185.416H124.06C123.523 186.034 123.249 186.8 123.249 187.566C123.249 189.213 124.295 190.399 126.357 191.088C126.367 191.091 126.376 191.095 126.386 191.098C126.638 191.25 126.891 191.363 127.14 191.472C127.37 191.573 128.013 191.858 128.303 192.098C128.278 194.12 127.91 199.603 124.968 205.216C119.353 201.613 115.24 199.094 112.246 197.448C114.618 195.227 116.811 191.763 116.811 186.556C116.811 179.457 111.998 175.834 107.28 174.534C106.853 175.198 106.393 175.824 105.901 176.416C109.079 177.486 112.455 179.997 112.455 185.301C112.455 193.124 106.372 195.984 104.659 196.658C107.915 197.163 122.995 207.172 124.708 208.221C129.762 200.774 130.105 192.871 130.105 190.6C130.105 188.329 126.935 187.488 126.678 187.235C126.421 186.983 125.049 186.814 125.049 186.309C125.049 185.804 126.138 185.889 126.138 185.889H139.1C140.3 185.889 140.813 185.889 140.813 186.394C140.813 186.899 140.984 186.983 139.1 187.235C137.216 187.488 133.36 190.264 132.417 194.134C131.474 198.004 127.448 208.435 126.679 209.867C130.767 213.583 138.738 219.419 148.274 224.606C148.293 223.704 148.633 222.867 149.217 222.239C141.891 218.096 135.634 213.644 131.666 210.313C133.242 206.493 135.915 199.268 136.689 196.092C137.317 193.511 140.006 191.654 140.794 191.486C142.245 191.291 145.266 190.886 145.169 187.65C145.169 186.765 144.837 185.97 144.278 185.357H140.632C139.541 185.357 138.563 184.883 137.881 184.123H137.882Z" fill="white"/>
<path d="M99.6896 199.266C97.8052 200.192 83.7527 211.296 94.7207 222.821C106.459 231.402 120.51 215.586 122.053 213.062C119.911 210.371 106.314 201.958 99.6896 199.266ZM103.557 223.58C101.568 223.58 99.7658 223.001 98.056 221.808C95.5668 219.112 94.5794 216.384 95.0398 213.482C95.7256 209.158 99.4118 205.528 101.318 203.978C106.992 206.588 115.438 211.828 119.168 214.663C116.209 217.929 109.754 223.58 103.557 223.58Z" fill="white"/>
<path d="M94.6341 185.217C94.0928 191.897 98.4044 193.292 102.345 195.479C108.599 191.525 109.371 188.58 109.371 185.133C109.371 182.029 106.32 179.479 103.337 178.996C100.832 181.106 97.8758 182.625 94.7913 183.713C94.6881 184.169 94.6294 184.668 94.6341 185.217ZM98.9791 186.711L98.9886 186.451C98.9664 183.409 102.837 183.197 103.634 183.186C105.32 183.194 107.569 184.772 107.569 186.389C107.569 188.365 107.569 190.242 103.442 193.199C100.046 191.397 98.6791 190.415 98.9791 186.713V186.711Z" fill="white"/>
<path d="M241.583 198.72C241.201 197.8 239.889 196.798 237.51 197.368C235.816 197.731 235.949 200.869 236.095 201.927C236.579 205.437 237.389 211.311 231.187 218.163L230.918 218.462C230.121 219.352 229.283 220.189 228.413 220.985C228.54 221.526 228.523 221.986 228.513 222.21C228.507 222.374 228.486 222.538 228.458 222.7C230.374 221.02 231.56 219.634 232.209 218.917C241.029 209.175 237.475 200.715 237.694 198.238C244.057 218.487 224.749 239.381 187.783 240.673C152.461 241.965 126.463 216.224 123.721 214.394C114.945 225.594 108.583 229.042 101.891 229.365C95.1999 229.687 84.8891 226.78 84.8891 215.578C84.8891 204.376 94.6522 199.315 97.0652 198.023C95.8031 196.784 89.6056 194.469 89.6056 187.037C89.6056 186.367 89.6722 185.726 89.7913 185.114C89.2357 185.234 88.6816 185.344 88.1308 185.443C87.9228 186.348 87.8053 187.297 87.8053 188.292C87.8053 193.708 90.5041 197.05 92.8901 199.072C84.8986 204.773 83.0889 211.717 83.0889 216.835C83.0889 228.462 92.6758 233.667 102.179 233.667C102.569 233.667 102.948 233.657 103.322 233.64C111.019 233.268 117.749 229.139 125.448 219.953C145.432 236.574 165.964 245 186.486 245C187.38 245 188.285 244.983 189.172 244.952C210.932 244.191 228.529 236.689 237.449 224.368C243.099 216.565 244.355 207.535 241.586 198.724L241.583 198.72Z" fill="white"/>
<path d="M219.955 228.431H216.704C206.658 232.799 195.158 233.949 185.832 233.949C185.654 233.952 185.295 233.952 185.295 233.952C177.788 233.952 169.603 231.689 161.803 228.436H155.917C165.251 232.713 175.402 235.852 184.602 235.716C201.348 235.716 212.578 232.258 219.957 228.431H219.955Z" fill="white"/>
<path d="M150.414 222.899C151.527 222.706 151.862 221.542 151.862 221.542V192.547C151.862 192.547 151.527 191.383 150.414 191.19C149.843 191.021 150.009 189.929 150.717 189.929H161.123C161.123 189.929 168.629 190.713 168.629 197.925C168.629 205.137 163.289 205.765 163.289 205.765C163.289 205.765 170.864 207.124 170.864 215.644C170.864 224.163 162.906 224.163 162.906 224.163H154.948H153.654H152.738C155.653 225.694 158.696 227.145 161.801 228.44H164.184C166.877 228.44 170.363 227.306 172.69 224.524C172.738 223.448 173.241 222.471 174.066 221.841V211.152C173.219 209.252 171.987 207.783 170.647 206.688C171.995 204.999 172.985 202.573 172.985 199.181C172.985 191.325 166.275 188.549 162.727 188.178L162.401 188.161H151.995C150.138 188.161 148.589 189.503 148.311 191.352C148.082 192.878 148.798 194.312 150.06 195.024V221.576C149.743 221.755 149.459 221.981 149.217 222.242C149.611 222.465 150.008 222.684 150.408 222.904C150.411 222.904 150.411 222.901 150.414 222.901V222.899Z" fill="white"/>
<path d="M155.217 205.45H159.635C159.635 205.45 164.852 203.673 164.852 198.081C164.852 192.488 160.54 191.233 159.581 191.233H156.116C155.168 191.504 155.217 192.546 155.217 192.546V205.448V205.45ZM159.572 195.51H160.729C161.086 195.588 163.05 196.163 163.05 199.335C163.05 202.002 161.132 203.257 160.28 203.682H159.572V195.512V195.51Z" fill="white"/>
<path d="M161.232 222.488C161.232 222.488 167.14 222.384 167.14 215.223C167.14 208.062 161.889 207.043 161.889 207.043H155.215V221.54C155.215 221.54 155.193 222.081 155.528 222.488H161.23H161.232ZM159.571 211.32H162.757C163.381 211.548 165.339 212.572 165.339 216.478C165.339 219.978 163.532 220.642 162.429 220.72H159.571V211.322V211.32Z" fill="white"/>
<path d="M155.917 228.437H161.803C158.698 227.142 155.655 225.691 152.74 224.16H150.718C150.013 224.16 149.846 223.079 150.408 222.903C150.01 222.683 149.611 222.461 149.217 222.24C148.633 222.868 148.293 223.705 148.274 224.608C150.73 225.944 153.291 227.234 155.915 228.437H155.917Z" fill="white"/>
<path d="M172.692 224.52C172.681 224.759 172.686 225 172.722 225.245C172.998 227.094 174.548 228.437 176.405 228.437H181.65C182.814 228.437 183.855 227.911 184.541 227.063C184.133 226.558 183.85 225.937 183.747 225.247C183.585 224.17 183.9 223.141 184.539 222.377C184.377 222.184 184.2 222.003 183.998 221.847V194.6C184.173 194.45 184.327 194.279 184.468 194.1C183.874 193.344 183.59 192.351 183.747 191.311C183.844 190.664 184.104 190.084 184.471 189.598C183.788 188.694 182.718 188.12 181.512 188.12H176.405C174.548 188.12 172.998 189.463 172.722 191.313C172.519 192.669 173.06 193.95 174.068 194.72V211.15C174.781 212.746 175.222 214.646 175.222 216.897C175.222 220.226 174.2 222.719 172.692 224.522V224.52ZM174.825 191.151C174.254 190.982 174.421 189.888 175.129 189.888H180.236C180.944 189.888 181.11 190.982 180.539 191.151C179.426 191.345 179.644 192.51 179.644 192.51V221.539C179.644 221.539 179.566 222.705 180.677 222.898C181.248 223.066 181.082 224.16 180.374 224.16H175.129C174.421 224.16 174.254 223.066 174.825 222.898C175.938 222.703 175.87 221.539 175.87 221.539V192.51C175.87 192.51 175.938 191.344 174.825 191.151Z" fill="white"/>
<path d="M172.692 224.52C174.201 222.717 175.223 220.225 175.223 216.895C175.223 214.643 174.78 212.743 174.069 211.148V221.838C173.243 222.467 172.74 223.445 172.692 224.52Z" fill="white"/>
<path d="M184.47 194.098C184.651 194.329 184.859 194.539 185.093 194.718V221.838C184.887 221.995 184.706 222.179 184.541 222.376C185.181 223.139 185.495 224.168 185.335 225.245C185.232 225.936 184.951 226.556 184.541 227.063C185.225 227.911 186.268 228.437 187.432 228.437H192.677C194.534 228.437 196.084 227.095 196.36 225.245C196.562 223.895 196.025 222.616 195.025 221.846V211.675H198.533C198.578 211.691 198.624 211.706 198.665 211.724C199.651 213.105 200.949 213.416 201.916 213.416L204.256 211.119V204.153L201.916 201.856C200.948 201.856 199.649 202.167 198.663 203.548C198.622 203.564 198.578 203.581 198.533 203.597H195.023V196.155H199.11C199.838 197.086 200.759 197.557 201.854 197.557C202.658 197.557 203.559 197.287 204.255 196.659V194.72C203.247 193.95 202.705 192.667 202.908 191.311C202.996 190.723 203.224 190.195 203.539 189.735C202.967 189.191 202.408 188.802 202.094 188.602L200.424 188.119H187.427C186.219 188.119 185.149 188.692 184.468 189.597C184.835 190.084 185.095 190.663 185.192 191.311C185.347 192.351 185.06 193.344 184.465 194.098H184.47ZM186.895 221.537V192.508C186.895 192.508 186.964 191.342 185.851 191.149C185.279 190.981 185.446 189.886 186.154 189.886H199.151C199.151 189.886 201.292 191.244 201.072 192.505C200.978 193.04 201.072 193.278 200.58 193.278C200.087 193.278 199.989 191.877 198.956 191.877H190.712C190.616 192.203 190.67 192.51 190.67 192.51V205.364H197.724C197.724 205.364 199.406 204.934 199.743 204.301C199.973 203.869 200.172 203.625 200.641 203.625V209.141C200.173 209.141 199.973 208.896 199.743 208.464C199.406 207.832 197.724 207.401 197.724 207.401H190.67V221.54C190.67 221.54 190.593 222.706 191.704 222.899C192.275 223.068 192.109 224.162 191.401 224.162H186.156C185.448 224.162 185.281 223.068 185.852 222.899C186.965 222.705 186.897 221.54 186.897 221.54L186.895 221.537Z" fill="white"/>
<path d="M184.47 194.098C185.064 193.342 185.352 192.349 185.197 191.311C185.1 190.664 184.84 190.084 184.473 189.597C184.106 190.084 183.846 190.663 183.749 191.31C183.593 192.348 183.878 193.342 184.47 194.098Z" fill="white"/>
<path d="M184.541 222.375C183.901 223.139 183.587 224.168 183.749 225.245C183.852 225.935 184.133 226.556 184.543 227.061C184.951 226.554 185.233 225.935 185.337 225.243C185.499 224.166 185.183 223.139 184.543 222.374L184.541 222.375Z" fill="white"/>
<path d="M205.382 194.274C205.374 194.319 205.37 194.36 205.366 194.394C205.242 195.429 204.813 196.156 204.258 196.656V204.15L204.996 204.875V210.391L204.258 211.116V221.835C203.25 222.605 202.708 223.888 202.911 225.244C203.188 227.092 204.737 228.434 206.594 228.434H211.84L211.876 228.428H216.702C220.96 226.578 224.952 224.145 228.41 220.981C228.289 220.463 228.038 219.872 227.516 219.339C226.853 218.66 225.938 218.286 224.943 218.286C223.106 218.286 222.176 219.642 221.706 220.393H214.187V211.672H218.037C218.082 211.688 218.128 211.703 218.169 211.721C219.155 213.102 220.453 213.413 221.42 213.413L224.498 210.391V204.875L221.42 201.853C220.452 201.853 219.153 202.164 218.167 203.545C218.126 203.561 218.082 203.578 218.037 203.594H214.186V196.152H217.94C218.669 197.083 219.59 197.554 220.685 197.554C222.133 197.554 223.92 196.721 224.197 194.374L224.209 194.277C224.743 191.275 221.83 189.173 220.925 188.599L219.256 188.116H206.593C205.326 188.116 204.215 188.749 203.54 189.732C204.608 190.75 205.723 192.318 205.378 194.273L205.382 194.274ZM205.318 189.887H217.982C217.982 189.887 220.125 191.244 219.902 192.505C219.814 193.004 219.902 193.278 219.41 193.278C218.918 193.278 218.82 191.877 217.786 191.877H209.874C209.779 192.203 209.833 192.51 209.833 192.51V205.364H217.228C217.228 205.364 218.91 204.934 219.247 204.301C219.477 203.869 219.675 203.625 220.145 203.625V209.141C219.677 209.141 219.477 208.896 219.247 208.464C218.91 207.832 217.228 207.401 217.228 207.401H209.833V221.54C209.833 221.54 209.815 221.844 209.942 222.167H221.547C222.581 222.167 223.176 220.059 223.668 220.059C224.16 220.059 224.176 220.473 224.16 220.833C224.105 222.111 221.744 224.156 221.744 224.156H210.592C210.582 224.156 210.574 224.162 210.563 224.162H205.318C204.61 224.162 204.443 223.068 205.015 222.899C206.128 222.705 206.059 221.54 206.059 221.54V192.511C206.059 192.511 206.128 191.345 205.015 191.152C204.443 190.984 204.61 189.89 205.318 189.89V189.887Z" fill="white"/>
<path d="M219.955 228.431C223.719 226.478 226.478 224.432 228.456 222.698C228.483 222.536 228.504 222.373 228.512 222.209C228.521 221.984 228.539 221.525 228.412 220.984C224.953 224.148 220.96 226.581 216.704 228.431H219.955Z" fill="white"/>
<path d="M204.996 204.878L204.258 204.152V211.119L204.996 210.394V204.878Z" fill="white"/>
<path d="M204.258 194.718V196.657C204.815 196.155 205.244 195.431 205.366 194.396C205.371 194.36 205.374 194.319 205.382 194.276C205.726 192.321 204.612 190.753 203.544 189.735C203.229 190.193 203.001 190.722 202.913 191.311C202.71 192.667 203.252 193.95 204.26 194.72L204.258 194.718Z" fill="white"/>
<path d="M112.09 138.654H140.714C140.714 138.654 142.204 138.916 143.162 140.326C144.12 141.737 144.013 143.358 143.428 143.724C142.843 144.091 142.365 141.938 140.847 141.938H128.796V177.913C128.796 177.913 129.649 179.346 130.987 179.585C131.674 179.792 131.474 181.139 130.622 181.139H121.657C120.805 181.139 120.605 179.792 121.292 179.585C122.631 179.346 123.483 177.913 123.483 177.913V141.938H111.432C111.396 141.938 111.364 141.944 111.329 141.947C111.77 143.706 112.115 145.506 112.342 147.336C112.834 146.959 113.172 146.514 113.39 146.224C113.391 146.221 113.394 146.218 113.396 146.215H121.683V177.947L121.665 177.951C119.906 178.483 118.836 180.229 119.124 182.102C119.417 184.023 121.021 185.418 122.935 185.418H124.061C124.726 184.652 125.794 184.119 127.247 184.119C127.347 184.119 127.433 184.122 127.501 184.124H134.757C135.245 183.574 135.591 182.886 135.712 182.104C135.999 180.23 134.929 178.485 133.17 177.953L133.152 177.948V146.217H137.378C138.017 145.049 139.239 144.285 140.634 144.285H146.932C147.353 144.285 147.756 144.363 148.134 144.493C148.15 144.488 148.165 144.485 148.181 144.48C148.372 142.981 147.95 141.305 147.002 139.907C145.397 137.543 142.997 137.017 142.531 136.936L141.992 136.89H114.02L112.847 138.216L112.09 138.657V138.654Z" fill="white"/>
<path d="M134.757 184.122H127.501C127.434 184.119 127.347 184.118 127.247 184.118C125.793 184.118 124.726 184.651 124.061 185.416H131.9C133.033 185.416 134.049 184.919 134.757 184.122Z" fill="white"/>
<path d="M144.914 148.731V178.399C144.914 178.399 144.846 179.59 145.958 179.789C146.108 179.835 146.203 179.945 146.255 180.081C146.538 179.454 146.997 178.918 147.587 178.547V151.272C146.319 150.65 145.554 149.322 145.625 147.864C145.444 147.924 145.26 147.973 145.073 148.002C144.9 148.363 144.914 148.731 144.914 148.731Z" fill="white"/>
<path d="M145.977 182.166C145.914 181.753 145.926 181.35 145.991 180.963C145.898 181.03 145.788 181.08 145.653 181.08H139.356C138.648 181.08 138.481 179.962 139.052 179.789C140.165 179.591 140.5 178.399 140.5 178.399V148.731C140.5 148.731 140.165 147.54 139.052 147.341C138.616 147.21 138.613 146.529 138.949 146.214H137.376C137.168 146.594 137.02 147.018 136.951 147.473C136.716 149.01 137.432 150.456 138.698 151.175V178.466C137.432 179.185 136.717 180.631 136.951 182.168C137.066 182.927 137.405 183.593 137.881 184.124H140.376C141.146 184.124 141.754 184.124 142.375 184.264C143.148 184.439 143.796 184.832 144.277 185.359H146.928C147.409 185.359 147.868 185.263 148.292 185.097C147.087 184.621 146.183 183.535 145.974 182.168L145.977 182.166Z" fill="white"/>
<path d="M142.379 184.263C141.758 184.122 141.15 184.122 140.38 184.122H137.885C138.567 184.883 139.545 185.357 140.636 185.357H144.282C143.801 184.83 143.154 184.439 142.381 184.263H142.379Z" fill="white"/>
<path d="M145.663 147.436C145.36 147.565 145.179 147.779 145.072 148.002C145.261 147.974 145.444 147.925 145.625 147.865C145.631 147.734 145.634 147.604 145.653 147.472C145.655 147.459 145.66 147.447 145.663 147.434V147.436Z" fill="white"/>
<path d="M139.356 146.052H145.654C145.828 146.052 145.969 146.12 146.074 146.225C146.519 145.405 147.254 144.789 148.133 144.49C147.754 144.361 147.352 144.283 146.931 144.283H140.634C139.238 144.283 138.016 145.046 137.378 146.214H138.951C139.056 146.116 139.189 146.05 139.358 146.05L139.356 146.052Z" fill="white"/>
<path d="M149.387 150.804C149.347 150.838 149.311 150.876 149.27 150.909V178.733C149.27 178.733 149.277 178.74 149.282 178.745C149.36 178.549 149.387 178.401 149.387 178.401V150.806V150.804Z" fill="white"/>
<path d="M150.081 146.052H154.679C155.387 146.052 155.553 147.169 154.982 147.342C154.698 147.392 154.455 147.545 154.248 147.743C154.252 147.746 174.859 171.843 175.018 171.843C175.176 171.843 175.23 171.006 175.23 171.006V147.903C174.187 147.537 173.313 147.041 173.313 146.441C173.313 145.841 173.419 145.67 174.217 145.67H178.583L194.499 145.696H204.028C204.028 145.696 205.496 146.156 205.537 147.147H205.545C205.545 147.147 205.542 147.16 205.542 147.168C205.542 147.174 205.545 147.18 205.545 147.188C205.545 147.729 205.12 148.09 204.718 148.315C204.364 148.53 204.028 148.638 204.028 148.638H193.807V178.377L193.801 178.38V178.388C193.801 178.388 194.136 179.579 195.249 179.778C195.82 179.951 195.653 181.069 194.945 181.069H188.24C187.532 181.069 187.365 179.951 187.937 179.778C189.049 179.581 189.281 178.388 189.281 178.388V178.065H189.284V148.606H187.581V148.627H178.585V179.634C178.585 181.306 178.478 181.568 177.947 181.568C177.415 181.568 177.042 181.085 177.042 181.085L153.367 153.265V178.965C153.367 178.965 153.871 179.595 154.982 179.794C155.553 179.967 155.387 181.085 154.679 181.085H150.618C150.665 181.437 150.67 181.8 150.613 182.171C150.403 183.538 149.5 184.626 148.295 185.1C148.719 185.267 149.178 185.362 149.659 185.362H155.956C157.808 185.362 159.355 184.02 159.638 182.171C159.882 180.569 159.095 179.061 157.722 178.38V162.851L175.926 184.243C176.569 185.033 177.75 185.845 179.221 185.845C182.939 185.845 182.939 182.115 182.939 180.888V152.904H187.481V178.514C186.276 179.25 185.606 180.662 185.835 182.157C186.117 184.006 187.665 185.348 189.516 185.348H196.222C198.073 185.348 199.621 184.006 199.903 182.157C200.137 180.625 199.425 179.178 198.163 178.46V171.782C197.324 169.371 196.928 166.974 196.917 164.89C196.927 162.8 197.324 160.396 198.163 157.98V152.916H200.654C202.565 150.022 205.277 147.451 208.909 145.804C208.182 144.94 207.163 144.364 206.242 144.075L205.307 143.932H195.784L179.863 143.905H175.499C173.078 143.905 171.514 145.394 171.514 147.699C171.514 148.687 171.893 149.952 173.432 151.007V165.178C169.812 160.979 164.697 155.016 159.559 149.012C159.689 148.528 159.72 148.008 159.639 147.475C159.357 145.626 157.809 144.284 155.958 144.284H149.337C148.932 144.284 148.548 144.359 148.181 144.477C148.181 144.485 148.178 144.495 148.178 144.502C148.973 144.784 149.64 145.333 150.083 146.052H150.081Z" fill="white"/>
<path d="M148.174 144.501C148.174 144.494 148.177 144.485 148.177 144.477C148.162 144.482 148.147 144.485 148.132 144.489C148.145 144.494 148.159 144.497 148.172 144.501H148.174Z" fill="white"/>
<path d="M150.613 182.167C150.67 181.796 150.667 181.431 150.618 181.08H148.381C147.673 181.08 147.507 179.963 148.078 179.79C148.803 179.66 149.137 179.111 149.281 178.744C149.277 178.741 149.272 178.736 149.269 178.731V150.907C149.31 150.874 149.346 150.837 149.386 150.803V148.73C149.386 148.73 148.865 147.539 147.754 147.339C147.183 147.166 147.349 146.049 148.057 146.049H150.081C149.639 145.33 148.972 144.782 148.176 144.499C148.157 144.638 148.142 144.777 148.113 144.912C147.87 146.042 147.246 146.971 146.357 147.526C146.127 147.67 145.879 147.779 145.624 147.863C145.552 149.32 146.317 150.648 147.586 151.27V178.546C146.995 178.917 146.537 179.453 146.254 180.079C146.364 180.368 146.263 180.768 145.992 180.962C145.925 181.348 145.914 181.752 145.978 182.165C146.187 183.532 147.091 184.62 148.295 185.094C149.5 184.618 150.404 183.532 150.613 182.165V182.167Z" fill="white"/>
<path d="M146.074 146.225C146.398 146.546 146.387 147.211 145.957 147.342C145.844 147.363 145.752 147.398 145.663 147.437C145.662 147.45 145.657 147.462 145.654 147.475C145.633 147.607 145.631 147.737 145.625 147.868C145.881 147.783 146.128 147.674 146.358 147.531C147.247 146.976 147.871 146.047 148.114 144.917C148.143 144.781 148.159 144.643 148.178 144.504C148.163 144.499 148.149 144.496 148.135 144.491C147.255 144.791 146.522 145.406 146.076 146.226L146.074 146.225Z" fill="white"/>
<path d="M207.57 152.167C207.314 152.318 207.071 152.438 206.862 152.531C204.653 155.363 203.306 159.139 203.306 163.283C203.306 172.076 209.367 179.203 216.845 179.203C224.324 179.203 230.385 172.076 230.385 163.283C230.385 154.491 224.324 147.363 216.845 147.363C214.204 147.363 211.74 148.256 209.657 149.794C209.308 150.75 208.595 151.58 207.571 152.165L207.57 152.167ZM218.122 151.641C223.891 151.641 228.582 157.427 228.582 164.538C228.582 171.649 223.889 177.434 218.122 177.434C212.354 177.434 207.662 171.649 207.662 164.538C207.662 157.427 212.354 151.641 218.122 151.641Z" fill="white"/>
<path d="M216.953 145.67C231.86 145.67 235.163 158.87 235.186 163.616C235.186 163.599 235.186 163.581 235.186 163.565V163.668C235.186 163.652 235.186 163.632 235.186 163.616C235.163 168.363 231.86 181.563 216.953 181.563C202.046 181.563 198.743 168.363 198.721 163.616C198.721 163.634 198.721 163.652 198.721 163.668V163.565C198.721 163.581 198.721 163.601 198.721 163.616C198.732 161.253 199.559 156.794 202.223 152.913H200.656C199.583 154.536 198.762 156.259 198.165 157.977V171.779C200.592 178.748 206.752 185.842 218.229 185.842C233.681 185.842 239.502 172.989 239.54 164.857C239.5 156.755 233.681 143.902 218.229 143.902C214.608 143.902 211.522 144.615 208.909 145.801C209.2 146.145 209.441 146.536 209.612 146.973C211.675 146.158 214.099 145.671 216.952 145.671L216.953 145.67ZM236.465 164.82V164.923C236.465 164.907 236.465 164.887 236.465 164.871C236.465 164.854 236.465 164.835 236.465 164.82Z" fill="white"/>
<path d="M200.656 152.913H202.223C203.887 150.491 206.268 148.295 209.615 146.971C209.441 146.536 209.2 146.144 208.911 145.799C205.279 147.448 202.569 150.017 200.656 152.911V152.913Z" fill="white"/>
<path d="M206.861 152.531C207.071 152.438 207.314 152.318 207.569 152.166C208.593 151.58 209.306 150.751 209.655 149.796C208.622 150.558 207.682 151.479 206.861 152.531Z" fill="white"/>
<path d="M196.92 164.887C196.929 166.969 197.326 169.366 198.166 171.779V157.977C197.326 160.393 196.931 162.796 196.92 164.887Z" fill="white"/>
<path d="M109.646 123.222C110.416 121.602 112.064 120.524 113.823 121.17C115.582 121.817 115.472 123.761 114.702 125.488C113.932 127.215 110.635 134.987 110.635 134.987L109.222 135.811C109.516 136.455 109.792 137.124 110.052 137.812C111.1 137.184 112.032 136.982 112.304 136.935L112.843 136.888H114.02L114.116 136.779C114.15 136.701 117.412 129.012 118.161 127.33C118.803 125.892 119.385 123.75 118.514 121.728C117.966 120.455 116.91 119.476 115.544 118.973C114.853 118.719 114.137 118.589 113.418 118.589C110.934 118.589 108.663 120.117 107.495 122.575C107.041 123.53 106.584 125.572 105.815 130.258C106.504 131.093 107.151 132.013 107.752 133.009C108.328 129.301 109.149 124.274 109.648 123.226L109.646 123.222Z" fill="white"/>
<path d="M112.304 136.933C112.032 136.982 111.1 137.183 110.053 137.811C110.208 138.224 110.358 138.643 110.502 139.072C111.088 138.746 111.567 138.653 111.567 138.653H112.089L112.847 138.212L114.02 136.885H112.844L112.304 136.932V136.933Z" fill="white"/>
<path d="M108.478 147.528C108.336 147.439 108.214 147.327 108.086 147.221C108.96 155.482 107.635 164.556 103.723 171.159C103.085 172.234 102.331 173.198 101.499 174.077C102.069 174 102.628 173.958 103.167 173.958C104.439 173.958 105.855 174.142 107.281 174.534C107.409 174.334 107.539 174.138 107.662 173.932C111.829 166.899 113.515 156.819 112.342 147.334C111.832 147.724 111.157 148.042 110.265 148.042C109.633 148.042 109.016 147.864 108.478 147.528Z" fill="white"/>
<path d="M68.6996 181.549C66.9359 181.178 61.0145 180.93 59.3762 181.301C55.4011 182.202 55.7234 179.199 56.9711 178.457C58.8507 177.59 59.3762 176.231 59.3762 176.231V127.496C59.5016 126.383 54.7153 124.897 56.1012 122.919C56.9838 121.682 61.0145 122.548 63.4084 122.796C65.8024 123.044 72.1016 121.806 81.1726 122.548C90.2435 123.29 95.487 125.67 98.3064 127.62C101.088 129.148 103.332 131.949 104.993 135.484C105.022 135.298 105.05 135.11 105.08 134.92C105.357 133.122 105.598 131.589 105.817 130.256C104.444 128.593 102.904 127.262 101.229 126.316C98.1413 124.216 92.4454 121.588 82.7061 120.792C80.6725 120.625 78.5834 120.541 76.4974 120.541C73.2303 120.541 70.449 120.746 68.417 120.896C67.2042 120.985 66.1564 121.063 65.4595 121.063C65.2896 121.063 65.1388 121.06 65.0086 121.046C64.58 121.001 64.0942 120.935 63.5847 120.866C62.3258 120.697 60.9002 120.503 59.6048 120.503C58.7729 120.503 56.2393 120.503 54.8423 122.463C53.1453 124.885 54.0152 127.33 57.4283 129.732C57.4744 129.765 57.5252 129.801 57.576 129.837V176.572C57.4347 176.698 57.2299 176.847 56.9426 176.979L56.6568 177.129C54.8629 178.195 53.9374 180.495 54.5026 182.483C54.9518 184.062 56.4552 185.75 59.3302 185.75C59.954 185.75 60.6319 185.667 61.3447 185.507C61.3495 185.507 61.8717 185.399 63.5735 185.399C65.8818 185.399 68.5186 185.591 69.3346 185.762C70.1728 185.938 73.4256 186.326 77.6293 186.326C80.5471 186.326 84.2587 186.135 88.1306 185.446C88.5846 183.476 89.4895 181.722 90.688 180.215C80.8852 183.077 69.8473 181.795 68.7028 181.554L68.6996 181.549Z" fill="white"/>
<path d="M100.574 155.572C100.574 139.245 94.6522 130.462 87.4719 128.359C80.2916 126.256 74.3703 126.627 67.3154 127.74V175.611C67.3154 175.611 72.3542 177.465 80.9219 177.094C89.488 176.723 100.575 171.899 100.575 155.571L100.574 155.572ZM82.0617 175.33C81.3553 175.361 80.6441 175.377 79.9488 175.377C76.2435 175.377 73.4114 174.937 71.6684 174.562V131.603C74.2131 131.268 76.2673 131.12 78.2422 131.12C81.568 131.12 84.6271 131.561 87.8688 132.51C93.1393 134.053 98.7717 141.253 98.7717 156.827C98.7717 172.401 87.0861 175.113 82.0617 175.33Z" fill="white"/>
<path d="M107.833 139.904C107.941 139.745 108.053 139.597 108.165 139.455L106.021 137.964C106.417 139.061 106.767 140.207 107.063 141.393C107.26 140.877 107.514 140.373 107.833 139.904Z" fill="white"/>
<path d="M101.499 174.075C100.797 174.817 100.038 175.494 99.2256 176.108C100.183 175.855 101.094 175.726 101.889 175.726C102.926 175.726 104.391 175.91 105.899 176.416C106.392 175.824 106.852 175.196 107.279 174.534C105.853 174.141 104.437 173.958 103.166 173.958C102.626 173.958 102.067 174 101.497 174.077L101.499 174.075Z" fill="white"/>
<path d="M93.1435 179.386C92.337 179.691 91.5163 179.967 90.6844 180.209C89.4874 181.716 88.581 183.469 88.127 185.44C88.6778 185.341 89.2319 185.231 89.7875 185.111C90.2463 182.773 91.5194 180.859 93.1419 179.384L93.1435 179.386Z" fill="white"/>
<path d="M94.792 183.714C97.8749 182.626 100.831 181.108 103.337 178.998C103.004 178.943 102.672 178.909 102.345 178.909C102.345 178.909 95.881 178.912 94.792 183.714Z" fill="white"/>
<path d="M107.064 141.393C107.533 143.255 107.874 145.213 108.085 147.221C108.212 147.327 108.334 147.44 108.477 147.528C109.015 147.864 109.635 148.042 110.265 148.042C111.157 148.042 111.832 147.724 112.341 147.334C112.116 145.506 111.77 143.706 111.328 141.946C109.895 142.043 109.422 144.08 108.85 143.723C108.265 143.357 108.158 141.737 109.117 140.325C109.15 140.275 109.19 140.238 109.225 140.189L108.166 139.454C108.052 139.596 107.941 139.745 107.834 139.903C107.515 140.372 107.263 140.875 107.064 141.391V141.393Z" fill="white"/>
<path d="M104.993 135.481C105.366 136.274 105.709 137.102 106.022 137.964L108.167 139.455C108.761 138.713 109.427 138.187 110.053 137.811C109.792 137.122 109.516 136.453 109.223 135.81L107.117 137.036C107.195 136.656 107.437 135.024 107.751 133.004C107.151 132.008 106.505 131.087 105.814 130.253C105.595 131.585 105.354 133.119 105.078 134.916C105.049 135.105 105.019 135.295 104.99 135.481H104.993Z" fill="white"/>
<path d="M110.501 139.072C110.358 138.643 110.209 138.222 110.052 137.811C109.426 138.187 108.76 138.713 108.166 139.455L109.225 140.191C109.622 139.658 110.085 139.304 110.501 139.072Z" fill="white"/>
</g>
<defs>
<linearGradient id="paint0_linear_196_313" x1="7.19004" y1="13.0738" x2="354.488" y2="182.478" gradientUnits="userSpaceOnUse">
<stop stop-color="#3A3A3A"/>
<stop offset="1" stop-color="#020202"/>
</linearGradient>
<clipPath id="clip0_196_313">
<rect width="298" height="298" fill="white"/>
</clipPath>
</defs>
</svg>
