<svg width="39" height="39" viewBox="0 0 39 39" fill="none" xmlns="http://www.w3.org/2000/svg">
<g clip-path="url(#clip0_192_3220)">
<path d="M19.9675 -0.000178969C14.7162 -0.121735 9.77296 1.79885 6.00472 5.39691C2.24459 8.99497 0.113304 13.8572 -0.00014796 19.076C-0.1136 24.3191 1.81509 29.2786 5.42936 33.0307C9.04363 36.7827 13.9221 38.9059 19.1571 38.995C19.2705 38.995 19.384 38.995 19.4974 38.995C24.5947 38.995 29.3921 37.0582 33.0388 33.5331C36.7503 29.9431 38.8654 25.0971 38.9869 19.9026C39.1895 9.18136 30.6482 0.251037 19.9675 -0.000178969ZM19.4812 37.512H19.4083C14.5866 37.4958 10.0728 35.5914 6.69354 32.1636C3.31428 28.7357 1.46663 24.1733 1.49094 19.3191C1.51525 14.5379 3.41963 10.0485 6.85562 6.6773C10.2754 3.33046 14.7973 1.49091 19.6028 1.49091C19.6352 1.49091 19.6676 1.49091 19.7 1.49091C29.5542 1.53953 37.5445 9.62706 37.504 19.5136C37.4878 24.3354 35.5915 28.8653 32.1798 32.2608C28.7762 35.6401 24.2787 37.5039 19.4893 37.5039L19.4812 37.512Z" fill="black"/>
<path d="M33.8168 13.3792C33.7763 10.5915 31.7018 8.16036 28.9789 7.72276C25.7374 7.20412 22.4473 7.10688 19.9432 7.07446H19.4813C19.1491 7.07446 18.8168 7.07446 18.4846 7.07446C17.2042 7.09067 15.8427 7.13119 14.4894 7.47155C9.40027 8.75194 5.68066 13.0793 5.23495 18.2333C5.08098 20.0161 5.11339 21.8152 5.17012 23.4926C5.25926 26.645 6.67742 29.0518 9.37596 30.6645C10.7698 31.4991 12.2852 31.9124 13.9465 31.9124C14.9675 31.9124 16.0453 31.7585 17.1961 31.4424C19.9351 30.6888 21.9611 28.9303 23.209 26.1993C23.8249 24.8541 24.7812 23.9951 26.0454 23.6466C26.6856 23.4683 27.3906 23.4521 28.0146 23.444C31.1588 23.3792 33.7601 20.7779 33.8087 17.6579C33.8331 16.2803 33.8331 14.8378 33.8087 13.3711L33.8168 13.3792ZM13.1928 29.2706C16.3938 29.222 18.6953 27.7471 20.0486 24.8946C20.9562 22.974 22.3582 21.726 24.2139 21.1831C24.8136 21.0048 25.4619 20.9562 26.094 20.8994L26.4262 20.8751C26.8071 20.8427 27.1961 20.8265 27.5689 20.8103C28.1361 20.786 28.7196 20.7698 29.2787 20.6806C30.2269 20.5348 30.8509 20.162 31.9773 19.2139C31.7585 19.773 31.4424 20.243 31.0048 20.6644C30.1134 21.5396 29.0356 21.9772 27.7958 21.9529C26.645 21.9367 25.7374 22.0988 24.9189 22.4716C23.5494 23.0956 22.5283 24.1247 21.8962 25.5186C20.6807 28.1766 18.671 29.7568 15.9238 30.2269C13.3387 30.6645 11.256 30.2674 9.56235 29.0194C9.51373 28.987 9.47321 28.9465 9.42458 28.914C10.7131 29.2787 12.0421 29.2949 13.1928 29.2787V29.2706ZM28.0956 19.3516C27.9416 19.3516 27.7796 19.3678 27.6175 19.384C27.1799 19.4246 26.7342 19.457 26.3695 19.3192C26.0129 19.1815 25.7131 18.8492 25.4214 18.525C25.316 18.4035 25.2107 18.29 25.0972 18.1847C23.0389 16.1263 20.8509 13.9383 18.4116 11.4991C18.3549 11.4424 18.3063 11.3532 18.2658 11.2641C18.2415 11.2155 18.2171 11.175 18.1928 11.1263L18.128 11.021L17.893 11.2236C17.8201 11.2884 17.7795 11.3208 17.739 11.3613C17.5283 11.5639 17.3176 11.7584 17.115 11.961L16.9692 12.1069L24.4165 19.5461C22.7714 19.9594 21.4262 20.7131 20.3322 21.8314L16.7423 18.2414L14.7893 16.2884L13.7925 17.3986L19.3598 22.9578C19.2625 23.1442 19.1734 23.3306 19.0842 23.5089C18.8735 23.9383 18.671 24.3354 18.4522 24.7325C17.3663 26.6693 15.705 27.6823 13.517 27.7552C12.3987 27.7957 11.4424 27.7552 10.5996 27.6174C8.19282 27.2447 6.97725 25.9643 6.76656 23.5899C6.66931 22.4959 6.67742 21.3695 6.67742 20.2836C6.67742 19.7973 6.67742 19.3192 6.67742 18.833C6.67742 18.8168 6.67742 18.8087 6.67742 18.7925L11.8557 23.9789L13.0226 22.7552L12.9173 22.6904C12.9173 22.6904 12.8444 22.6499 12.8119 22.6336C12.7309 22.5931 12.6418 22.5445 12.585 22.4878C11.8395 21.7422 11.094 21.0048 10.3484 20.2592C9.30303 19.2139 8.25765 18.1685 7.20416 17.1231C7.03398 16.9529 6.99346 16.8233 7.05829 16.5883C7.47158 15.1215 8.12799 13.8411 9.05181 12.6741L10.5672 14.3111L11.6288 13.1604L10.0243 11.6207C11.1588 10.5429 12.423 9.7568 13.8978 9.23006C15 8.83298 16.1912 8.62228 17.4311 8.60607C18.9141 8.58986 20.235 8.58986 21.4667 8.61417C21.6531 8.61417 21.9043 8.72763 22.0502 8.87349C23.2901 10.0891 24.5381 11.337 25.7374 12.5526C25.7941 12.6093 25.8428 12.6985 25.8914 12.7876C25.9157 12.8362 25.9481 12.8848 25.9724 12.9335L26.0373 13.0469L27.1556 11.8881L23.987 8.72763C24.0924 8.72763 24.2058 8.74383 24.3112 8.75194C24.611 8.76815 24.927 8.79246 25.2269 8.81677C25.551 8.84918 25.8752 8.8816 26.2074 8.91401C27.0583 8.99505 27.9416 9.07609 28.7925 9.22195C30.7617 9.57042 32.2771 11.3532 32.3014 13.3711C32.3177 14.222 32.3258 15.1944 32.1394 16.0777C31.7423 17.9092 30.0405 19.2949 28.0875 19.3597L28.0956 19.3516Z" fill="black"/>
<path d="M31.7585 27.5124L30.9968 26.6777L30.154 27.561V26.6372H29.1086V26.7345C29.1086 26.8965 29.1086 27.0505 29.1086 27.2045C29.1086 27.5691 29.1005 27.9176 29.1248 28.2742C29.141 28.5254 29.06 28.6875 28.8898 28.8414V27.9095H27.8363V28.0067C27.8363 28.1769 27.8363 28.339 27.8363 28.5092C27.8363 28.8982 27.8282 29.2709 27.8444 29.6518C27.8525 29.8706 27.7634 29.9841 27.6094 30.1218V29.1818H26.564V29.279C26.564 29.4411 26.564 29.6032 26.564 29.7653C26.564 30.1542 26.5559 30.5189 26.5802 30.8917C26.5964 31.1186 26.5073 31.2482 26.3452 31.386V30.446H25.2998V30.5432C25.2998 30.681 25.2998 30.8268 25.2998 30.9646C25.2998 31.2888 25.2917 31.5967 25.3161 31.9127C25.3485 32.3017 25.235 32.5691 24.9595 32.7879C24.765 32.9419 24.5867 33.1202 24.4165 33.2985C24.3436 33.3795 24.2626 33.4525 24.1896 33.5335L24.1167 33.6064L24.8866 34.3763L24.9595 34.3033C25.0405 34.2223 25.1216 34.1413 25.1945 34.0602C25.3728 33.882 25.543 33.7118 25.6888 33.5254C25.9157 33.2418 26.175 33.1283 26.564 33.1688C26.8882 33.1931 27.2123 33.185 27.5284 33.185C27.6661 33.185 27.8039 33.185 27.9417 33.185H28.0389V32.1234H27.0989C27.2609 31.9452 27.4392 31.8803 27.6986 31.8965C28.0551 31.9208 28.4117 31.9127 28.752 31.9127C28.8979 31.9127 29.0519 31.9127 29.1977 31.9127H29.295V30.8512H28.3712C28.5251 30.681 28.7034 30.6161 28.9627 30.6324C29.3193 30.6567 29.6759 30.6486 30.0162 30.6405C30.1621 30.6405 30.3161 30.6405 30.4619 30.6405H30.5592V29.5789H29.6353C29.7974 29.4006 29.9595 29.3358 30.1945 29.3601C30.5511 29.3844 30.9238 29.3844 31.2723 29.3763C31.4263 29.3763 31.5802 29.3763 31.7342 29.3763H31.8315V28.3147H30.8914L31.7585 27.5124Z" fill="black"/>
</g>
<defs>
<clipPath id="clip0_192_3220">
<rect width="38.9952" height="38.9952" fill="white"/>
</clipPath>
</defs>
</svg>
