<svg width="25" height="24" viewBox="0 0 25 24" fill="none" xmlns="http://www.w3.org/2000/svg">
<path fill-rule="evenodd" clip-rule="evenodd" d="M19.6111 2H7.61111C5.92222 2 4.5 3.45455 4.5 5.18182V18.8182C4.5 20.5455 5.92222 22 7.61111 22H19.6111C20.1444 22 20.5 21.6364 20.5 21.0909V2.90909C20.5 2.36364 20.1444 2 19.6111 2ZM7.61128 3.81812H18.7224V15.6363H7.61128C7.16684 15.6363 6.7224 15.7272 6.27795 15.9999V5.18175C6.27795 4.45448 6.90017 3.81812 7.61128 3.81812ZM6.27795 18.8182C6.27795 19.5455 6.90017 20.1819 7.61128 20.1819H18.7224V17.4546H7.61128C6.90017 17.4546 6.27795 18.091 6.27795 18.8182Z" fill="#424242"/>
</svg>
