<svg width="71" height="30" viewBox="0 0 71 30" fill="none" xmlns="http://www.w3.org/2000/svg">
<g clip-path="url(#clip0_192_3246)">
<path d="M0 13.9694C0 11.8447 0 9.70412 0 7.57938C0 6.42188 0.409949 6.02547 1.57673 6.02547C4.25716 6.02547 6.95336 6.00961 9.6338 6.02547C10.233 6.02547 10.706 5.86691 11.1948 5.51807C12.9922 4.21786 14.8212 2.96522 16.6345 1.66501C18.1797 0.570926 19.8983 0.00010145 21.8061 0.0159577C26.4575 0.0476702 31.1246 -0.0633235 35.7759 0.0476702C43.2654 0.222089 49.8876 2.74323 55.4219 7.91236C55.6742 8.15021 56.0999 8.30877 56.4626 8.35634C60.5936 8.89545 64.567 9.92611 68.2092 12.0826C70.1328 13.2242 71.1104 14.7623 71 17.0773C70.8896 19.424 70.9842 21.7866 70.9685 24.1333C70.9685 25.2908 70.5901 25.6872 69.4075 25.6872C67.0424 25.6872 64.6773 25.6872 62.3122 25.6872C61.8865 25.6872 61.6658 25.7982 61.4608 26.1946C60.1837 28.6523 58.1497 29.9842 55.4062 30.0001C52.6311 30.0001 50.5656 28.6682 49.2885 26.1946C49.0993 25.8299 48.9101 25.6872 48.5001 25.6872C39.5285 25.6872 30.557 25.6872 21.5854 25.7189C21.3489 25.7189 20.9862 25.9409 20.8759 26.1629C19.5672 28.6365 17.5332 30.0001 14.7582 30.016C11.9358 30.016 9.90184 28.6365 8.57739 26.1312C8.46702 25.925 8.15168 25.7348 7.91517 25.7189C7.11104 25.6713 6.29114 25.7189 5.47124 25.7031C2.27049 25.6396 0.0157673 23.3722 0 20.1375C0 18.0762 0 16.0308 0 13.9694ZM48.5001 23.2612C48.5789 21.3743 49.1623 19.6935 50.4868 18.3458C51.827 16.9821 53.4668 16.2686 55.3904 16.2686C56.9671 16.2686 58.402 16.7601 59.6318 17.7591C61.3662 19.1544 62.1703 21.0413 62.2492 23.2453H68.6034C68.6034 20.8193 68.6507 18.4409 68.5718 16.0625C68.5718 15.6026 68.1777 15.0318 67.7992 14.7147C67.1686 14.1914 66.4117 13.7792 65.6707 13.3986C62.4699 11.7654 59.0011 11.0519 55.4692 10.6396C55.0435 10.5921 54.5547 10.3701 54.2552 10.0688C49.0204 4.97896 42.7135 2.55296 35.4921 2.42611C30.9354 2.34682 26.3786 2.42611 21.8219 2.39439C20.4186 2.39439 19.173 2.7908 18.022 3.59947C15.988 5.04238 13.9698 6.50116 11.9043 7.89651C11.4786 8.18192 10.9267 8.35634 10.4222 8.37219C8.53009 8.41976 6.62225 8.38805 4.73018 8.38805C3.97335 8.38805 3.21652 8.38805 2.47546 8.38805C2.42816 8.53076 2.39662 8.61004 2.39662 8.67346C2.39662 12.6058 2.36509 16.554 2.39662 20.4864C2.39662 21.961 3.6107 23.1502 5.07706 23.2612C5.78659 23.3088 6.51188 23.2612 7.22141 23.2929C7.75749 23.3246 7.93093 23.1502 7.97824 22.5952C8.24628 19.1703 10.8479 16.5223 14.2221 16.2527C17.5174 15.9832 20.5605 18.1872 21.3804 21.4536C21.5223 22.0244 21.5696 22.6111 21.68 23.2453H48.5316L48.5001 23.2612ZM55.4219 18.647C52.978 18.6312 50.9283 20.6449 50.8967 23.1026C50.881 25.5762 52.8676 27.6058 55.3273 27.6375C57.7713 27.6692 59.8052 25.6713 59.8525 23.1819C59.8998 20.7559 57.8659 18.6629 55.4219 18.647ZM10.296 23.0075C10.233 25.5128 12.125 27.5265 14.6163 27.6217C17.0444 27.7168 19.1257 25.7348 19.2045 23.2612C19.2834 20.8193 17.2967 18.6946 14.8685 18.6312C12.4088 18.5678 10.3591 20.5181 10.296 22.9916V23.0075Z" fill="black"/>
<path d="M48.5001 23.2612H21.6485C21.5539 22.6428 21.4908 22.0403 21.3489 21.4695C20.529 18.1872 17.4859 15.9991 14.1905 16.2686C10.8321 16.554 8.21475 19.1862 7.9467 22.6111C7.8994 23.1661 7.72596 23.3405 7.18987 23.3088C6.48035 23.2612 5.75505 23.3246 5.04553 23.2771C3.57917 23.1661 2.38086 21.9769 2.36509 20.5022C2.33356 16.5699 2.36509 12.6217 2.36509 8.68933C2.36509 8.62591 2.39662 8.54663 2.44393 8.40392C3.18499 8.40392 3.94182 8.40392 4.69865 8.40392C6.59072 8.40392 8.49856 8.43563 10.3906 8.38806C10.8952 8.38806 11.4628 8.19779 11.8728 7.91238C13.9383 6.51703 15.9722 5.07411 17.9905 3.61534C19.1257 2.80667 20.3713 2.39441 21.7904 2.41026C26.3471 2.42612 30.9038 2.36269 35.4606 2.44197C42.6662 2.56882 48.9889 4.99483 54.2236 10.0847C54.5232 10.3859 55.012 10.6079 55.4377 10.6555C58.9853 11.0678 62.4384 11.7813 65.6391 13.4145C66.3802 13.795 67.137 14.2073 67.7677 14.7306C68.1461 15.0477 68.5245 15.6185 68.5403 16.0783C68.6191 18.4568 68.5718 20.8194 68.5718 23.2612H62.2176C62.1388 21.0572 61.3347 19.1703 59.6003 17.775C58.3704 16.776 56.9356 16.2686 55.3589 16.2845C53.451 16.2845 51.8112 16.998 50.4553 18.3616C49.1308 19.7094 48.5632 21.3902 48.4686 23.2771L48.5001 23.2612ZM30.4781 9.57728C30.1155 9.57728 29.8474 9.57728 29.5794 9.57728C27.0882 9.57728 24.5969 9.54557 22.1215 9.59314C21.207 9.60899 20.4501 9.40286 19.7564 8.83204C19.173 8.35635 18.5108 7.94409 17.8801 7.51597C17.1548 7.02443 16.4768 7.11956 16.0668 7.73796C15.6727 8.32464 15.8303 8.95889 16.5241 9.45043C17.4701 10.1322 18.4004 10.8299 19.378 11.4325C19.851 11.7179 20.4659 11.9399 21.002 11.9399C30.6516 11.9716 40.3169 11.9557 49.9665 11.9557C50.1872 11.9557 50.408 11.9557 50.6287 11.9399C51.2436 11.8606 51.6063 11.48 51.6536 10.8616C51.7009 10.2432 51.3855 9.81512 50.7864 9.64071C50.5026 9.56142 50.203 9.57728 49.9034 9.57728C44.511 9.57728 39.1186 9.57728 33.7104 9.57728C33.4266 9.57728 33.1428 9.57728 32.8117 9.57728C32.8117 8.05508 32.8117 6.64388 32.8117 5.23267C32.8117 4.40815 32.2125 3.90075 31.4872 3.99589C30.8565 4.07517 30.4624 4.56671 30.4466 5.31195C30.4466 6.69145 30.4466 8.08679 30.4466 9.57728H30.4781Z" fill="white"/>
<path d="M55.4218 18.6468C57.8657 18.6627 59.8997 20.7557 59.8524 23.1817C59.8051 25.6711 57.7869 27.669 55.3272 27.6373C52.8675 27.6056 50.8808 25.576 50.8966 23.1024C50.9123 20.6447 52.9621 18.631 55.4218 18.6468Z" fill="white"/>
<path d="M10.296 23.0073C10.359 20.5337 12.4088 18.5676 14.8685 18.6468C17.2966 18.7103 19.2833 20.8192 19.2045 23.2769C19.1256 25.7663 17.0444 27.7325 14.6162 27.6373C12.125 27.5422 10.2329 25.5126 10.296 23.0232V23.0073Z" fill="white"/>
<path d="M30.4782 9.57715C30.4782 8.08666 30.4782 6.70717 30.4782 5.31182C30.4782 4.55072 30.8882 4.07503 31.5189 3.99575C32.2442 3.90062 32.8275 4.42387 32.8433 5.23254C32.8591 6.64374 32.8433 8.05495 32.8433 9.57715C33.1744 9.57715 33.4582 9.57715 33.742 9.57715C39.1344 9.57715 44.5269 9.57715 49.935 9.57715C50.2346 9.57715 50.5342 9.57715 50.818 9.64057C51.4172 9.79914 51.7325 10.2431 51.6852 10.8615C51.6379 11.4799 51.2752 11.8604 50.6603 11.9397C50.4396 11.9714 50.2188 11.9556 49.9981 11.9556C40.3485 11.9556 30.6832 11.9556 21.0336 11.9397C20.4818 11.9397 19.8826 11.7177 19.4096 11.4323C18.4163 10.8298 17.486 10.1321 16.5557 9.4503C15.862 8.95876 15.7201 8.32451 16.0985 7.73782C16.5084 7.11943 17.1864 7.02429 17.9117 7.51584C18.5424 7.94396 19.2046 8.35622 19.788 8.83191C20.4975 9.40273 21.2386 9.62472 22.1531 9.593C24.6443 9.52958 27.1356 9.57715 29.611 9.57715C29.8791 9.57715 30.1471 9.57715 30.5098 9.57715H30.4782Z" fill="black"/>
</g>
<defs>
<clipPath id="clip0_192_3246">
<rect width="71" height="30" fill="white"/>
</clipPath>
</defs>
</svg>
