<svg width="60" height="39" viewBox="0 0 60 39" fill="none" xmlns="http://www.w3.org/2000/svg">
<g clip-path="url(#clip0_139_360)">
<path d="M59.2608 38.3076C59.2608 37.9997 59.2608 37.702 59.2608 37.3941C59.2608 36.5318 58.9379 36.2342 57.9805 36.2342C57.4907 36.2342 56.9897 36.2342 56.4999 36.2342H53.7502V31.7075L53.8838 31.6767C54.0285 31.6459 54.1621 31.6151 54.2957 31.5843C56.7671 30.9684 58.359 29.5416 59.0159 27.3347C59.6615 25.1484 59.0604 23.116 57.2569 21.4736C56.8561 21.1041 56.6669 20.7756 56.6112 20.3035C56.3663 18.5482 54.6074 17.2343 52.6147 17.2754C50.6219 17.337 48.9743 18.7843 48.863 20.5601C48.8407 20.868 48.7405 21.063 48.4845 21.2683C47.0818 22.4077 46.2802 24.0398 46.258 25.7334C46.2468 27.4168 47.015 29.0489 48.3843 30.1883C49.3194 30.9684 50.4327 31.4611 51.7797 31.6869V36.1726H43.653V7.62663C43.653 6.57963 43.4081 6.35381 42.2725 6.35381H39.5673V4.48565C39.5673 3.35654 39.5673 2.23769 39.5673 1.10858C39.5673 0.297675 39.2334 0 38.3539 0C32.5427 0 26.7204 0 20.8981 0C20.0298 0 19.6958 0.307939 19.6958 1.11885V5.90217C19.6958 6.02534 19.6958 6.15878 19.6735 6.29222V6.35381H18.8274C18.0927 6.35381 17.3913 6.35381 16.6789 6.35381C15.9664 6.35381 15.6435 6.65149 15.6101 7.30842C15.6101 7.45213 15.6101 7.59583 15.6101 7.73954V36.1931H7.47227V31.7177L7.58359 31.6972C7.72832 31.6664 7.87304 31.6356 8.00663 31.6048C10.4669 31.0095 12.0589 29.6032 12.7268 27.4271C13.4059 25.2407 12.8715 23.2905 11.146 21.6173C10.6896 21.1759 10.4224 20.8167 10.3222 20.2419C10.0327 18.5071 8.4408 17.2857 6.49261 17.2857C6.43694 17.2857 6.38128 17.2857 6.32562 17.2857C4.35516 17.3575 2.81887 18.6919 2.60735 20.5293C2.56282 20.8783 2.40697 21.0938 2.15092 21.3504C1.50523 21.9869 1.03767 22.5411 0.714825 23.0954C0.469909 23.4958 0.325187 23.9474 0.191596 24.3785C0.135934 24.5735 0.0691386 24.7583 0.00234346 24.9431V26.6162L0.013476 26.647C0.0246085 26.6675 0.035741 26.6778 0.0580061 26.6983C0.0580061 26.7086 0.0802711 26.7291 0.0802711 26.7394C0.659162 29.4492 2.44037 31.0813 5.50181 31.7383V36.2444H3.36437C3.15285 36.2444 2.94133 36.2444 2.72981 36.2444C2.23998 36.2444 1.73902 36.2444 1.24919 36.2444C0.681427 36.2342 0.280657 36.4189 0.013476 36.8295L-0.00878906 36.8603V37.9484H58.7041L58.7375 37.9176C59.1049 37.6507 59.2719 37.2914 59.2608 36.7987C59.2385 36.1623 59.2496 38.944 59.2608 38.3282V38.3076ZM5.37935 19.2975C5.73559 19.0717 6.1141 18.9588 6.48147 18.9588C6.81545 18.9588 7.16056 19.0512 7.5168 19.2257C8.22928 19.5952 8.57439 20.2521 8.51873 21.1144C8.35174 21.6994 8.75251 22.0587 9.13101 22.2948C10.9901 23.506 11.6358 25.6616 10.6896 27.5503C9.7767 29.3774 7.58359 30.3731 5.45728 29.9112C3.28644 29.4492 1.79468 27.6119 1.90601 25.5487C1.98393 24.163 2.65188 23.0646 3.90986 22.264C4.2661 22.0382 4.61121 21.7302 4.51102 21.1246C4.37743 20.3445 4.66687 19.7286 5.37935 19.2873V19.2975ZM21.6328 6.31275V1.78605H37.6637V6.32302H21.6328V6.31275ZM31.9972 29.3671V36.2136H27.2548V29.3671H31.9972ZM33.9343 28.7615C33.9343 27.8582 33.656 27.6016 32.6763 27.6016C30.6613 27.6016 28.6463 27.6016 26.6313 27.6016C25.5849 27.6016 25.3288 27.848 25.3288 28.8334V36.2136H17.5361V8.12959H41.7159V36.2136H33.9343V34.017C33.9343 32.2618 33.9343 30.5065 33.9343 28.7615ZM54.741 21.1759C54.663 21.7713 55.0304 22.069 55.4201 22.3256C56.7337 23.1981 57.4573 24.6043 57.346 26.0824C57.2347 27.5503 56.3218 28.8436 54.908 29.5314C53.4719 30.2294 51.802 30.1883 50.4216 29.4287C48.9966 28.6383 48.1394 27.2116 48.1394 25.6103C48.1728 24.2656 48.8519 23.1262 50.0987 22.3153C50.6108 21.9869 50.7889 21.6276 50.7444 21.1041C50.6887 20.4985 50.878 19.9442 51.301 19.5439C51.6795 19.1743 52.1805 18.9793 52.7371 18.9793C52.7594 18.9793 52.7705 18.9793 52.7928 18.9793C53.3828 18.9896 53.906 19.2154 54.2623 19.5952C54.6519 20.0058 54.8189 20.5703 54.741 21.1759Z" fill="black"/>
<path d="M32.5069 13.036C32.4958 12.338 32.1395 12.0095 31.3714 12.0095C30.1691 12.0095 29.0001 12.0095 27.8646 12.0095C27.1076 12.0095 26.7514 12.3483 26.7402 13.0462C26.7402 14.5141 26.7402 15.8485 26.7402 17.1316C26.7402 17.8296 27.0965 18.1478 27.8758 18.158C28.4546 18.158 29.0447 18.158 29.6347 18.158C30.2247 18.158 30.8036 18.158 31.3936 18.158C32.1618 18.158 32.5069 17.8296 32.518 17.1213C32.518 16.6594 32.518 16.1975 32.518 15.7253V15.0992V14.473C32.518 13.9906 32.518 13.5082 32.518 13.0257L32.5069 13.036ZM30.581 13.7956V16.3925H28.6773V13.7956H30.581Z" fill="black"/>
<path d="M32.5183 20.8269C32.5071 20.1084 32.162 19.7902 31.405 19.7799C30.3586 19.7697 29.2119 19.7697 27.8983 19.7799C27.1301 19.7799 26.7628 20.1084 26.7628 20.8064C26.7628 22.0895 26.7516 23.4239 26.7628 24.8917C26.7628 25.6 27.119 25.9387 27.876 25.9387C28.4438 25.9387 29.0338 25.9387 29.635 25.9387C30.2027 25.9387 30.7816 25.9387 31.3939 25.9387C32.1732 25.9387 32.5294 25.6 32.5294 24.8609C32.5294 24.3887 32.5294 23.9268 32.5294 23.4547V22.8388V22.2229C32.5294 21.761 32.5294 21.2888 32.5294 20.8269H32.5183ZM28.6776 24.1527V21.5454H30.5923V24.1527H28.6776Z" fill="black"/>
<path d="M23.9348 19.7801C22.8327 19.7801 21.6861 19.7698 20.4281 19.7801C19.66 19.7801 19.3148 20.0983 19.3037 20.8065C19.3037 21.2787 19.3037 21.7406 19.3037 22.2128V22.8184V23.4548C19.3037 23.927 19.3037 24.4094 19.3037 24.8816C19.3148 25.6001 19.66 25.9183 20.417 25.9286C20.9959 25.9286 21.5859 25.9286 22.1759 25.9286C22.7659 25.9286 23.3448 25.9286 23.9348 25.9286C24.703 25.9286 25.0592 25.5898 25.0592 24.8918C25.0592 23.5266 25.0592 22.1717 25.0592 20.8065C25.0592 20.088 24.7141 19.7698 23.946 19.7595L23.9348 19.7801ZM21.2296 24.1528V21.5456H23.1222V24.1528H21.2296Z" fill="black"/>
<path d="M38.8746 19.7801C37.6723 19.7698 36.4811 19.7698 35.3122 19.7801C34.5886 19.7801 34.2323 20.1188 34.2212 20.786C34.2212 21.2684 34.2212 21.7509 34.2212 22.223V22.8492V23.4753C34.2212 23.9578 34.2212 24.4299 34.2212 24.9124C34.2212 25.5898 34.5886 25.9183 35.3122 25.9286C35.9022 25.9286 36.5034 25.9286 37.0934 25.9286C37.6834 25.9286 38.2846 25.9286 38.8746 25.9286C39.6093 25.9286 39.9544 25.6001 39.9656 24.9124C39.9767 23.5369 39.9767 22.1512 39.9656 20.7757C39.9656 20.088 39.6093 19.7698 38.8746 19.7595V19.7801ZM36.1249 24.1631V21.5558H38.0174V24.1631H36.1249Z" fill="black"/>
<path d="M38.8857 12.0097C37.7391 11.9994 36.5368 11.9994 35.3122 12.0097C34.5886 12.0097 34.2323 12.3484 34.2212 13.0156C34.2212 13.498 34.2212 13.9805 34.2212 14.4629V15.089V15.7152C34.2212 16.1976 34.2212 16.6801 34.2212 17.1625C34.2212 17.8194 34.5774 18.1479 35.2676 18.1582C35.8577 18.1582 36.4588 18.1684 37.0823 18.1684C37.7057 18.1684 38.2846 18.1684 38.8969 18.1582C39.6093 18.1582 39.9544 17.84 39.9656 17.183C39.9767 15.7254 39.9767 14.3192 39.9656 12.9848C39.9656 12.3381 39.6093 12.0199 38.8969 12.0097H38.8857ZM38.0174 13.7854V16.4029H36.1471V13.7854H38.0174Z" fill="black"/>
<path d="M25.0481 13.0462C25.0481 12.338 24.6808 12.0095 23.9349 12.0095C22.766 12.0095 21.5859 12.0095 20.417 12.0095C19.6711 12.0095 19.3149 12.3277 19.3038 13.0052C19.2926 14.3293 19.2926 15.6843 19.3038 17.1521C19.3038 17.8501 19.6377 18.158 20.3836 18.158C20.9959 18.158 21.6082 18.158 22.2094 18.158C22.8105 18.158 23.3894 18.158 23.9683 18.158C24.6919 18.158 25.037 17.8296 25.0481 17.1418C25.0481 16.6697 25.0481 16.2078 25.0481 15.7356V15.1197V14.5038C25.0481 14.0214 25.0481 13.539 25.0481 13.0565V13.0462ZM23.1222 13.7853V16.3823H21.2186V13.7853H23.1222Z" fill="black"/>
</g>
<defs>
<clipPath id="clip0_139_360">
<rect width="59.2696" height="38.4" fill="white"/>
</clipPath>
</defs>
</svg>
