<svg width="28" height="42" viewBox="0 0 28 42" fill="none" xmlns="http://www.w3.org/2000/svg">
<g clip-path="url(#clip0_192_3222)">
<path d="M18.6921 25.5377H17.1506C17.0358 26.3987 16.9175 27.2597 16.8049 28.1219C16.3524 31.581 15.9021 35.04 15.4507 38.4991C15.3565 39.2256 15.2646 39.9522 15.167 40.6775C15.1004 41.1707 14.8661 41.3788 14.363 41.3845C13.7749 41.3914 13.1857 41.388 12.5976 41.3845C11.9532 41.3811 11.7189 41.1477 11.7177 40.4982C11.7166 35.6987 11.7177 30.8993 11.7177 26.0998C11.7177 25.9285 11.7177 25.7573 11.7177 25.5538H5.43143C5.28901 26.6309 5.14428 27.7207 5.00186 28.8117C4.58147 32.0293 4.16223 35.2458 3.74299 38.4635C3.6488 39.19 3.55347 39.9154 3.45699 40.6408C3.38577 41.1707 3.16294 41.3788 2.64263 41.3834C2.02583 41.3891 1.40788 41.3914 0.791078 41.3834C0.260423 41.3765 0.00658206 41.119 0.00543346 40.5775C0.00313625 34.6285 -0.00260676 28.6795 0.00887927 22.7316C0.0123251 21.2038 1.2287 20.0186 2.76782 20.0071C4.50451 19.9945 6.24235 19.9945 7.97904 20.0117C8.31213 20.0151 8.40517 19.9071 8.45915 19.5898C9.47452 13.6477 10.4991 7.70898 11.5328 1.77029C11.7235 0.662108 12.5195 0.004553 13.6348 0.00340342C17.4826 -0.00119486 21.3304 -0.00234443 25.1782 0.00340342C26.6013 0.00570257 27.5053 1.12309 27.2606 2.53361C26.2177 8.55736 25.1805 14.5834 24.1456 20.6083C24.1146 20.79 24.1238 20.9808 24.1238 21.167C24.1238 27.5609 24.1238 33.956 24.1238 40.3499C24.1238 41.2006 23.9377 41.3857 23.0901 41.3868C22.5445 41.3868 21.9989 41.3926 21.4533 41.3845C20.9789 41.3776 20.7366 41.165 20.6757 40.6982C20.2128 37.1679 19.7545 33.6376 19.2939 30.1072C19.0975 28.5978 18.8977 27.0896 18.6932 25.5388L18.6921 25.5377ZM9.78579 20.0048H19.2181C20.1106 20.0048 20.0979 20.0025 20.2484 19.1254C21.0926 14.2029 21.9438 9.2816 22.7914 4.36028C22.9603 3.3774 23.128 2.39566 23.3014 1.38174C23.1291 1.38174 23.0005 1.38174 22.873 1.38174C19.8579 1.38174 16.8428 1.38174 13.8289 1.38174C13.1351 1.38174 12.9559 1.54728 12.8376 2.23587C11.9601 7.34112 11.078 12.4464 10.1981 17.5516C10.0603 18.3529 9.92822 19.1564 9.78579 20.0036V20.0048ZM22.7432 24.1226C22.7432 23.8938 22.742 23.6949 22.7432 23.4972C22.7501 22.4925 22.6249 21.4648 22.7868 20.4865C23.785 14.4432 24.8474 8.41022 25.8904 2.37497C25.9845 1.83237 25.8065 1.47945 25.3861 1.39553C24.9726 1.31392 24.6613 1.58981 24.5683 2.13011C23.5254 8.19525 22.4836 14.2604 21.4441 20.3255C21.2787 21.2889 21.1765 21.3843 20.1921 21.3843C18.4141 21.3843 16.6372 21.3843 14.9614 21.3843C15.0556 22.3005 15.1475 23.1995 15.2417 24.1226H22.7432ZM1.38031 24.1168H13.7783C13.7783 23.6053 13.8048 23.1178 13.7726 22.6339C13.7266 21.9487 13.1512 21.3935 12.4586 21.3912C9.21608 21.3785 5.97243 21.3797 2.72992 21.39C1.97988 21.3923 1.40788 21.989 1.38491 22.7408C1.37112 23.1845 1.38261 23.6305 1.38261 24.1168H1.38031ZM2.15447 39.9924C2.7839 35.1619 3.40874 30.367 4.03703 25.5457H1.40558V39.9924H2.15447ZM13.8702 39.9889C14.4985 35.163 15.1245 30.3613 15.7505 25.5572H13.1179V39.9889H13.8702ZM20.0853 25.5411C20.717 30.3877 21.3419 35.1803 21.9679 39.9843H22.7168V25.5411H20.0853Z" fill="black"/>
</g>
<defs>
<clipPath id="clip0_192_3222">
<rect width="27.3" height="41.3903" fill="white"/>
</clipPath>
</defs>
</svg>
