<svg width="25" height="24" viewBox="0 0 25 24" fill="none" xmlns="http://www.w3.org/2000/svg">
<path fill-rule="evenodd" clip-rule="evenodd" d="M22.4818 12.1816C22.3148 11.8476 18.8075 5 12.5444 5C6.28139 5 2.77408 11.8476 2.60706 12.1816C2.52356 12.4321 2.52356 12.6827 2.60706 12.9332C2.61688 12.9479 2.63822 12.9854 2.67096 13.0429C3.19568 13.9646 6.64932 20.0313 12.5444 20.0313C18.8075 20.0313 22.3148 13.1837 22.4818 12.8497C22.5653 12.6827 22.5653 12.3486 22.4818 12.1816ZM12.5446 18.3613C8.03522 18.3613 5.11246 13.8519 4.27739 12.5158C5.02895 11.1796 8.03522 6.67024 12.5446 6.67024C17.054 6.67024 19.9768 11.1796 20.8118 12.5158C19.9768 13.8519 17.054 18.3613 12.5446 18.3613ZM12.5449 9.17557C10.7077 9.17557 9.20459 10.6787 9.20459 12.5159C9.20459 14.353 10.7077 15.8562 12.5449 15.8562C14.382 15.8562 15.8852 14.353 15.8852 12.5159C15.8852 10.6787 14.382 9.17557 12.5449 9.17557ZM12.5455 14.186C11.627 14.186 10.8754 13.4345 10.8754 12.5159C10.8754 11.5973 11.627 10.8457 12.5455 10.8457C13.4641 10.8457 14.2157 11.5973 14.2157 12.5159C14.2157 13.4345 13.4641 14.186 12.5455 14.186Z" fill="white"/>
</svg>
