<svg width="25" height="24" viewBox="0 0 25 24" fill="none" xmlns="http://www.w3.org/2000/svg">
<path fill-rule="evenodd" clip-rule="evenodd" d="M18.4884 7.09091C18.4884 7.58182 18.1611 7.90909 17.6702 7.90909H15.2157V9.54545H17.6702C17.9157 9.54545 18.1611 9.54545 18.3248 9.79091C18.4884 10.0364 18.5702 10.2818 18.4884 10.5273L17.6702 13.8C17.5884 14.2091 17.2611 14.4545 16.8521 14.4545H15.2157V20.1818C15.2157 20.6727 14.8884 21 14.3975 21H11.1248C10.6339 21 10.3066 20.6727 10.3066 20.1818V14.4545H8.67023C8.17932 14.4545 7.85205 14.1273 7.85205 13.6364V10.3636C7.85205 9.87273 8.17932 9.54545 8.67023 9.54545H10.3066V7.90909C10.3066 5.20909 12.5157 3 15.2157 3H17.6702C18.1611 3 18.4884 3.32727 18.4884 3.81818V7.09091ZM16.6064 11.1818H14.3973C13.9064 11.1818 13.5792 10.8545 13.5792 10.3636V7.90909C13.5792 7.00909 14.3155 6.27273 15.2155 6.27273H16.8519V4.63636H15.2155C13.4155 4.63636 11.9428 6.10909 11.9428 7.90909V10.3636C11.9428 10.8545 11.6155 11.1818 11.1246 11.1818H9.48825V12.8182H11.1246C11.6155 12.8182 11.9428 13.1455 11.9428 13.6364V19.3636H13.5792V13.6364C13.5792 13.1455 13.9064 12.8182 14.3973 12.8182H16.1973L16.6064 11.1818Z" fill="black"/>
</svg>
