<svg width="15" height="15" viewBox="0 0 15 15" fill="none" xmlns="http://www.w3.org/2000/svg">
<path fill-rule="evenodd" clip-rule="evenodd" d="M10.6948 4.25435C10.6948 4.5489 10.4984 4.74526 10.2039 4.74526H8.73117V5.72708H10.2039C10.3512 5.72708 10.4984 5.72708 10.5966 5.87435C10.6948 6.02162 10.7439 6.1689 10.6948 6.31617L10.2039 8.27981C10.1548 8.52526 9.95844 8.67253 9.71299 8.67253H8.73117V12.1089C8.73117 12.4034 8.53481 12.5998 8.24026 12.5998H6.27662C5.98208 12.5998 5.78572 12.4034 5.78572 12.1089V8.67253H4.8039C4.50935 8.67253 4.31299 8.47617 4.31299 8.18162V6.21799C4.31299 5.92344 4.50935 5.72708 4.8039 5.72708H5.78572V4.74526C5.78572 3.12526 7.11117 1.7998 8.73117 1.7998H10.2039C10.4984 1.7998 10.6948 1.99617 10.6948 2.29071V4.25435ZM9.56562 6.7089H8.24016C7.94562 6.7089 7.74925 6.51253 7.74925 6.21799V4.74526C7.74925 4.20526 8.19107 3.76344 8.73107 3.76344H9.71289V2.78162H8.73107C7.65107 2.78162 6.76744 3.66526 6.76744 4.74526V6.21799C6.76744 6.51253 6.57107 6.7089 6.27653 6.7089H5.29471V7.69071H6.27653C6.57107 7.69071 6.76744 7.88708 6.76744 8.18162V11.618H7.74925V8.18162C7.74925 7.88708 7.94562 7.69071 8.24016 7.69071H9.32016L9.56562 6.7089Z" fill="white"/>
</svg>
