<svg width="25" height="24" viewBox="0 0 25 24" fill="none" xmlns="http://www.w3.org/2000/svg">
<path fill-rule="evenodd" clip-rule="evenodd" d="M8.57559 21H16.7574C19.4574 21 21.6665 18.7909 21.6665 16.0909V7.90909C21.6665 5.20909 19.4574 3 16.7574 3H8.57559C5.87559 3 3.6665 5.20909 3.6665 7.90909V16.0909C3.6665 18.7909 5.87559 21 8.57559 21ZM5.30303 7.90925C5.30303 6.10925 6.77575 4.63652 8.57575 4.63652H16.7576C18.5576 4.63652 20.0303 6.10925 20.0303 7.90925V16.0911C20.0303 17.8911 18.5576 19.3638 16.7576 19.3638H8.57575C6.77575 19.3638 5.30303 17.8911 5.30303 16.0911V7.90925ZM10.2115 15.2726C10.9479 15.8453 11.7661 16.0908 12.6661 16.0908C12.7888 16.0908 12.8911 16.0703 12.9934 16.0499C13.0956 16.0294 13.1979 16.009 13.3206 16.009C14.3843 15.8453 15.3661 15.2726 16.0206 14.3726C16.6752 13.4726 16.9206 12.409 16.757 11.3453C16.5115 9.54533 15.1206 8.15443 13.3206 7.90897C12.9115 7.82715 12.5025 7.82715 12.0934 7.90897C9.88428 8.23624 8.32973 10.3635 8.57519 12.5726C8.73882 13.6362 9.31155 14.6181 10.2115 15.2726ZM12.3402 9.54539H12.6674H13.1583C14.222 9.70902 15.0402 10.5272 15.2038 11.5908C15.2856 12.2454 15.122 12.8181 14.7129 13.3908C14.3038 13.9636 13.7311 14.2908 13.0765 14.3727C11.7674 14.6181 10.4583 13.6363 10.2947 12.3272C10.0493 11.0181 11.0311 9.70902 12.3402 9.54539ZM16.5928 8.07287C16.7565 8.2365 16.9201 8.31832 17.1655 8.31832C17.411 8.31832 17.5746 8.2365 17.7383 8.07287C17.7792 8.03196 17.7996 7.99105 17.8201 7.95014C17.8405 7.90923 17.861 7.86832 17.9019 7.82741C17.9837 7.74559 17.9837 7.58196 17.9837 7.50014C17.9837 7.25469 17.9019 7.09105 17.7383 6.92741C17.411 6.60014 16.9201 6.60014 16.5928 6.92741C16.4292 7.09105 16.3474 7.25469 16.3474 7.50014C16.3474 7.66378 16.3474 7.74559 16.4292 7.82741C16.4292 7.90923 16.511 7.99105 16.5928 8.07287Z" fill="black"/>
</svg>
