<svg width="15" height="15" viewBox="0 0 15 15" fill="none" xmlns="http://www.w3.org/2000/svg">
<path fill-rule="evenodd" clip-rule="evenodd" d="M5.34682 12.5998H10.2559C11.8759 12.5998 13.2014 11.2744 13.2014 9.65435V4.74526C13.2014 3.12526 11.8759 1.7998 10.2559 1.7998H5.34682C3.72682 1.7998 2.40137 3.12526 2.40137 4.74526V9.65435C2.40137 11.2744 3.72682 12.5998 5.34682 12.5998ZM3.38328 4.74535C3.38328 3.66536 4.26692 2.78172 5.34692 2.78172H10.256C11.336 2.78172 12.2196 3.66536 12.2196 4.74535V9.65445C12.2196 10.7344 11.336 11.6181 10.256 11.6181H5.34692C4.26692 11.6181 3.38328 10.7344 3.38328 9.65445V4.74535ZM6.32839 9.16337C6.77021 9.50701 7.26112 9.65428 7.80112 9.65428C7.87476 9.65428 7.93612 9.64201 7.99749 9.62973C8.05885 9.61746 8.12021 9.60519 8.19385 9.60519C8.83203 9.50701 9.42112 9.16337 9.81385 8.62337C10.2066 8.08337 10.3538 7.44519 10.2557 6.80701C10.1084 5.72701 9.27385 4.89246 8.19385 4.74519C7.94839 4.6961 7.70294 4.6961 7.45749 4.74519C6.13203 4.94155 5.1993 6.21791 5.34658 7.54337C5.44476 8.18155 5.78839 8.77064 6.32839 9.16337ZM7.60556 5.72704H7.80192H8.09647C8.73465 5.82522 9.22556 6.31613 9.32374 6.95431C9.37283 7.34704 9.27465 7.69067 9.0292 8.03431C8.78374 8.37795 8.44011 8.57431 8.04738 8.6234C7.26192 8.77067 6.47647 8.18158 6.37829 7.39613C6.23102 6.61067 6.82011 5.82522 7.60556 5.72704ZM10.1572 4.84352C10.2553 4.94171 10.3535 4.9908 10.5008 4.9908C10.6481 4.9908 10.7462 4.94171 10.8444 4.84352C10.869 4.81898 10.8812 4.79443 10.8935 4.76989C10.9058 4.74534 10.9181 4.7208 10.9426 4.69625C10.9917 4.64716 10.9917 4.54898 10.9917 4.49989C10.9917 4.35262 10.9426 4.25443 10.8444 4.15625C10.6481 3.95989 10.3535 3.95989 10.1572 4.15625C10.059 4.25443 10.0099 4.35262 10.0099 4.49989C10.0099 4.59807 10.0099 4.64716 10.059 4.69625C10.059 4.74534 10.1081 4.79443 10.1572 4.84352Z" fill="white"/>
</svg>
