<svg width="50" height="52" viewBox="0 0 50 52" fill="none" xmlns="http://www.w3.org/2000/svg">
<path d="M14.6225 23.7376C14.8333 24.1714 15.6122 22.588 15.6975 22.4192C16.5032 20.7494 17.1415 18.9782 17.5389 17.1733C17.8886 16.2647 19.21 16.0143 20.0742 15.9138C22.0139 15.728 24.1841 16.0138 25.9083 16.9517C26.1258 17.0782 26.345 17.2326 26.5274 17.4188C26.6801 17.5807 26.8148 17.7652 26.9691 17.9267C27.7422 18.7686 28.6541 19.4762 29.5702 20.1719C29.7998 20.3498 30.0416 20.5232 30.2553 20.7267C30.2746 20.7461 30.2955 20.7687 30.3147 20.7897L30.4147 21.0002C30.4118 20.9833 30.4135 20.9969 30.4247 21.0167C30.4356 21.0369 30.454 21.0645 30.4762 21.0933C30.521 21.1514 30.5816 21.2152 30.6477 21.2766C31.2722 21.8351 32.3816 22.3788 33.2299 22.2445C33.4048 22.2165 33.5495 22.137 33.7017 22.0575C35.1181 21.2593 36.7261 19.5849 37.0122 17.9662L37.0151 18.1203C37.016 18.1301 37.0218 18.1437 37.021 18.1437C37.021 18.1446 37.0231 18.1474 37.0222 18.1466C37.0197 18.1404 37.0126 18.1281 37.0038 18.1137C36.9867 18.0857 36.9616 18.0502 36.934 18.014C36.8788 17.9407 36.8127 17.8616 36.7449 17.7817C36.4563 17.4443 36.1241 17.0749 35.9259 16.6618C35.2583 15.347 34.5204 13.4375 35.0888 11.981C35.1269 11.8863 35.1897 11.7607 35.2336 11.6672C35.9137 10.2432 35.7958 9.47054 35.5958 7.96301L36.0928 7.9626C36.8445 7.9659 37.5455 7.55936 38.0555 7.02555C38.4964 6.55682 38.9904 6.10332 39.6078 5.86319L39.4873 6.59471C38.9448 6.15852 38.3299 5.77916 37.7212 5.43647C37.4903 5.31043 37.2318 5.16792 36.9992 5.09378C36.6767 5.05506 36.3325 5.04682 36.0066 5.07483C35.9853 5.07607 35.9464 5.08266 35.9288 5.08595L35.3829 5.14444C35.3796 4.96486 35.3854 4.5266 35.3829 4.34702V4.07805L35.6351 3.95572C35.6607 3.94378 35.7121 3.91824 35.7372 3.90547C36.6065 3.45115 38.0471 2.49515 37.9287 1.41806L37.9438 1.48849C37.9162 1.39582 37.876 1.33156 37.848 1.30726C37.8082 1.26319 37.7254 1.26483 37.6623 1.26401C37.6581 1.26401 37.6694 1.26401 37.674 1.26401L37.692 1.26319C37.7049 1.26195 37.7116 1.26113 37.7212 1.25948L37.7442 1.25495C37.7969 1.24094 37.8036 1.23312 37.8087 1.23147C37.6497 1.35133 37.5041 1.49879 37.3381 1.6376C36.9867 1.94116 36.5659 2.24184 36.1116 2.40948C35.0039 2.83249 33.8611 3.09816 32.7476 3.47051C32.6367 3.50923 32.5326 3.54424 32.4309 3.5949L32.2268 3.67687L32.1063 3.65092C31.5684 3.53394 31.1589 3.31276 30.6452 3.21061C30.3106 3.14018 29.9504 3.11711 29.6045 3.12617C28.4763 3.14182 27.4188 3.58584 26.2802 3.74195C25.8774 3.80003 25.4657 3.82968 25.0562 3.81733C23.844 3.75183 22.6966 3.38566 21.5839 2.94947C21.34 2.8502 21.0986 2.74476 20.8577 2.62614C20.5871 2.48733 20.3315 2.36541 20.0956 2.14917L20.4059 2.27562C20.4599 2.27603 20.498 2.26326 20.5193 2.25502C20.5352 2.25049 20.5452 2.24225 20.5565 2.23566C20.5666 2.22866 20.5603 2.23237 20.5528 2.24102C20.3486 2.50463 20.2917 2.93217 20.3971 3.23903C20.5327 3.66039 20.9715 3.91124 21.3898 4.03645C21.5061 4.07558 21.6968 4.14643 21.8152 4.1905C22.1954 4.34084 22.5719 4.47265 22.9095 4.7309C23.219 4.96444 23.3395 5.37222 23.0785 5.69514C22.8764 5.93651 22.6008 6.04072 22.3226 6.14534C21.5554 6.44931 20.8401 6.8888 20.1604 7.35918C19.2443 8.00338 18.4018 8.7522 17.6577 9.58422C17.0951 10.2049 16.6115 10.8879 16.1702 11.5959C15.7163 12.2986 15.3185 13.0338 14.9889 13.8036C13.675 16.8994 13.3211 20.5743 14.6216 23.738L14.6225 23.7376ZM14.6225 23.7376C13.9461 22.1527 13.6729 20.4227 13.6089 18.7093C13.5156 16.385 13.9544 14.024 14.9893 11.9242C15.3687 11.1222 15.8707 10.3841 16.4274 9.69213C16.9779 8.99645 17.592 8.34978 18.2567 7.75913C19.1473 6.97077 20.1169 6.27797 21.176 5.71944C21.4676 5.56869 21.752 5.42988 22.0674 5.31579C22.1733 5.27583 22.2983 5.22723 22.3824 5.16503C22.3916 5.15803 22.3946 5.1535 22.387 5.16256C22.3803 5.17121 22.3607 5.19757 22.3494 5.24988C22.3448 5.2746 22.3431 5.30384 22.346 5.32897C22.3494 5.35492 22.3548 5.37469 22.3615 5.39034C22.3736 5.41917 22.3812 5.42453 22.3791 5.42288C22.3774 5.42041 22.3674 5.41093 22.3531 5.3994C22.1122 5.22476 21.7897 5.11149 21.5019 4.99822L21.3032 4.9249L21.2028 4.88866C20.8514 4.77662 20.5017 4.63493 20.2056 4.40015C19.5961 3.93925 19.3418 3.16283 19.5229 2.4309C19.6241 2.01654 19.8914 1.42794 20.4064 1.41064L20.5866 1.409C20.6724 1.48973 20.7033 1.53668 20.8042 1.60341C21.1497 1.82583 21.5345 1.98976 21.9189 2.14958C22.8175 2.50751 23.7842 2.8119 24.7404 2.9264C25.2127 2.98077 25.6824 2.95235 26.153 2.88604C27.1578 2.74435 28.1257 2.37076 29.1744 2.28221C29.7274 2.23813 30.2804 2.25131 30.8272 2.36417C31.0949 2.41813 31.3655 2.50463 31.6173 2.59442C31.8641 2.68298 32.0796 2.76 32.29 2.8049L31.9654 2.86091C31.9921 2.84526 32.0197 2.83043 32.0469 2.81602L32.1134 2.78471C32.3661 2.67515 32.6301 2.59566 32.8881 2.5141C33.8875 2.20024 34.9119 1.9494 35.8765 1.56881C36.2078 1.43124 36.4789 1.22323 36.7616 0.984336C36.9591 0.823286 37.1436 0.617752 37.3749 0.478533C37.4117 0.459174 37.4514 0.435284 37.5401 0.41263L37.5568 0.408923L37.5769 0.405216C37.5911 0.403157 37.602 0.401097 37.62 0.399862L37.6447 0.398626H37.6631H37.6706H37.7032C38.0994 0.391212 38.4838 0.602924 38.6674 0.956327C38.7268 1.06548 38.7653 1.1668 38.7967 1.27431L38.8009 1.30973C38.9778 2.86462 37.3686 4.02739 36.1417 4.67241C36.1083 4.68971 36.0434 4.72143 36.0095 4.73749L36.2618 4.34619V4.66582L35.7159 4.2461C35.7523 4.23828 35.7937 4.22922 35.8217 4.22592C36.23 4.17444 36.6316 4.18762 37.0423 4.22675C37.2473 4.2424 37.4623 4.33384 37.6355 4.4158C38.3261 4.75026 38.9636 5.1465 39.5898 5.58105C39.8952 5.78287 40.326 6.16428 40.6146 6.397L39.9336 6.66514C39.64 6.77965 39.3903 6.96006 39.1497 7.17012C38.954 7.33817 38.7712 7.54247 38.5863 7.72618C37.9325 8.36996 37.0419 8.83087 36.0919 8.82634L36.5278 8.34031C36.6127 8.9878 36.6872 9.7152 36.5705 10.3886C36.4684 11.018 36.2342 11.6111 35.9577 12.1804C35.6113 12.8967 35.7836 13.7888 36.0016 14.5508C36.2078 15.2242 36.4893 15.8985 36.8445 16.5122C37.0101 16.7623 37.213 16.983 37.418 17.2265C37.5635 17.4027 37.73 17.5881 37.8296 17.8085C37.8497 17.8538 37.8618 17.8941 37.8748 17.9497L37.8911 18.0231C37.6648 19.4358 36.775 20.6171 35.7678 21.5892C35.1817 22.1354 34.5338 22.6449 33.7904 22.9765C33.1789 23.2277 32.4933 23.1408 31.8913 22.9517C31.1442 22.7231 29.7103 21.9624 29.5463 21.1415L29.6463 21.352C29.6099 21.3132 29.5748 21.2848 29.5333 21.2486C28.3684 20.3313 27.1402 19.4618 26.1614 18.3328C26.0309 18.1882 25.9246 18.0268 25.7678 17.9048C24.8943 17.2545 23.7369 17.0428 22.6731 16.8343C21.4509 16.6144 19.6597 16.4159 18.5026 16.8796C18.2655 16.9818 18.0618 17.128 17.963 17.322L17.9739 17.2903C17.7836 17.8937 17.5535 18.4753 17.3134 19.052C17.108 19.5557 14.9801 24.4564 14.6208 23.7368L14.6225 23.7376Z" fill="white"/>
<path d="M37.9873 27.0654V28.4037C38.1446 27.9498 38.3609 27.4946 38.6436 27.0654H37.9873Z" fill="white"/>
<path d="M34.5431 45.2792V38.1127C34.4812 38.0653 34.4264 38.0097 34.3787 37.9487C34.3415 37.9961 34.3009 38.0414 34.2549 38.0809V45.2812C34.308 45.3224 34.3549 45.3702 34.3975 45.4213C34.441 45.3694 34.4887 45.3208 34.5431 45.2792Z" fill="white"/>
<path d="M22.1032 35.3128H21.2795C21.093 35.5232 20.8252 35.6546 20.5266 35.6546H18.461C18.3196 35.8177 18.2472 36.0204 18.2472 36.2226C18.2472 36.658 18.5229 36.9715 19.0663 37.1535C19.0688 37.1543 19.0713 37.1552 19.0738 37.156C19.1403 37.1963 19.2068 37.226 19.2725 37.2548C19.3331 37.2816 19.5026 37.357 19.5791 37.4204C19.5724 37.9546 19.4754 39.4037 18.7002 40.8869C17.2207 39.9346 16.1369 39.269 15.348 38.834C15.9729 38.2471 16.551 37.3319 16.551 35.9557C16.551 34.08 15.2827 33.1223 14.0395 32.7788C13.927 32.9543 13.8057 33.1199 13.676 33.2764C14.5134 33.5589 15.4032 34.2225 15.4032 35.6242C15.4032 37.6914 13.8002 38.4473 13.3489 38.6252C14.2068 38.7587 18.1803 41.4038 18.6316 41.681C19.9635 39.713 20.0539 37.6247 20.0539 37.0246C20.0539 36.4245 19.2185 36.202 19.1508 36.1353C19.083 36.0686 18.7216 36.0241 18.7216 35.8906C18.7216 35.7572 19.0085 35.7794 19.0085 35.7794H22.424C22.7402 35.7794 22.8753 35.7794 22.8753 35.9129C22.8753 36.0463 22.9205 36.0686 22.424 36.1353C21.9275 36.202 20.9114 36.9356 20.6629 37.9583C20.4145 38.9811 19.3536 41.7375 19.1512 42.116C20.2283 43.0979 22.3286 44.6401 24.8414 46.0108C24.8464 45.7723 24.9359 45.5512 25.0899 45.3852C23.1594 44.2904 21.5108 43.114 20.4651 42.2338C20.8805 41.2242 21.5849 39.3151 21.7886 38.4757C21.9542 37.7936 22.6628 37.303 22.8703 37.2585C23.2527 37.2071 24.0487 37.1 24.0232 36.2449C24.0232 36.0109 23.9357 35.8009 23.7885 35.639H22.8277C22.5403 35.639 22.2826 35.5138 22.1027 35.3128H22.1032Z" fill="white"/>
<path d="M12.0393 39.3145C11.5428 39.5591 7.83997 42.4934 10.73 45.539C13.823 47.8064 17.5254 43.627 17.932 42.9601C17.3677 42.2488 13.7849 40.0258 12.0393 39.3145ZM13.0583 45.7396C12.5342 45.7396 12.0594 45.5863 11.6089 45.2712C10.953 44.5587 10.6928 43.8378 10.8141 43.0709C10.9948 41.9283 11.9661 40.969 12.4685 40.5596C13.9635 41.2491 16.1889 42.6339 17.1719 43.3831C16.3922 44.246 14.6914 45.7396 13.0583 45.7396Z" fill="white"/>
<path d="M10.7075 35.6019C10.5649 37.3672 11.701 37.7359 12.7392 38.3138C14.3873 37.2688 14.5906 36.4907 14.5906 35.5796C14.5906 34.7595 13.7866 34.0857 13.0006 33.958C12.3406 34.5157 11.5617 34.9169 10.7489 35.2044C10.7217 35.3251 10.7062 35.4569 10.7075 35.6019ZM11.8524 35.9969L11.8549 35.9281C11.8491 35.1241 12.8689 35.0681 13.0789 35.0652C13.5231 35.0672 14.1158 35.4845 14.1158 35.9116C14.1158 36.4339 14.1158 36.9298 13.0283 37.7112C12.1335 37.235 11.7733 36.9755 11.8524 35.9973V35.9969Z" fill="white"/>
<path d="M49.4279 39.1701C49.3271 38.9271 48.9816 38.6622 48.3545 38.813C47.9082 38.909 47.9433 39.7381 47.9818 40.0178C48.1094 40.9454 48.3227 42.4974 46.6884 44.308L46.6177 44.3871C46.4077 44.6223 46.1869 44.8435 45.9577 45.054C45.9911 45.1969 45.9865 45.3184 45.984 45.3777C45.9823 45.421 45.9769 45.4642 45.9694 45.5071C46.4743 45.063 46.7867 44.6969 46.9578 44.5074C49.2819 41.9331 48.3453 39.6973 48.4031 39.0428C50.0796 44.3937 44.9922 49.9151 35.2516 50.2566C25.9443 50.598 19.0937 43.7956 18.3713 43.3121C16.0589 46.2719 14.3823 47.183 12.6192 47.2683C10.856 47.3536 8.13915 46.5854 8.13915 43.6251C8.13915 40.6649 10.7117 39.3275 11.3475 38.986C11.015 38.6585 9.38194 38.0469 9.38194 36.083C9.38194 35.9059 9.3995 35.7366 9.43088 35.5747C9.28447 35.6064 9.13848 35.6357 8.99333 35.6616C8.93853 35.9009 8.90758 36.1518 8.90758 36.4146C8.90758 37.8459 9.6187 38.729 10.2474 39.2632C8.14166 40.7699 7.66479 42.6049 7.66479 43.9571C7.66479 47.0298 10.1909 48.4051 12.6949 48.4051C12.7978 48.4051 12.8978 48.4027 12.9961 48.3981C15.0244 48.2997 16.7976 47.2086 18.8264 44.7813C24.092 49.1733 29.5024 51.4 34.9098 51.4C35.1453 51.4 35.3837 51.3955 35.6176 51.3872C41.3513 51.1862 45.9882 49.2038 48.3386 45.9478C49.8274 43.8859 50.1583 41.4998 49.4287 39.1713L49.4279 39.1701Z" fill="white"/>
<path d="M43.7295 47.0215H42.8728C40.2257 48.1756 37.1955 48.4796 34.738 48.4796C34.6912 48.4804 34.5966 48.4804 34.5966 48.4804C32.6185 48.4804 30.4617 47.8823 28.4065 47.0227H26.8555C29.3151 48.1529 31.9897 48.9825 34.4138 48.9467C38.8265 48.9467 41.7856 48.0327 43.7299 47.0215H43.7295Z" fill="white"/>
<path d="M25.4052 45.5597C25.6985 45.5086 25.7867 45.201 25.7867 45.201V37.5389C25.7867 37.5389 25.6985 37.2313 25.4052 37.1802C25.2546 37.1357 25.2986 36.847 25.4851 36.847H28.2271C28.2271 36.847 30.2049 37.0541 30.2049 38.96C30.2049 40.8658 28.7977 41.0318 28.7977 41.0318C28.7977 41.0318 30.7938 41.391 30.7938 43.6424C30.7938 45.8938 28.6969 45.8938 28.6969 45.8938H26.5999H26.259H26.0176C26.7856 46.2982 27.5875 46.6817 28.4057 47.024H29.0336C29.743 47.024 30.6616 46.7241 31.2749 45.9889C31.2874 45.7047 31.42 45.4464 31.6375 45.28V42.4553C31.4142 41.9532 31.0896 41.5652 30.7365 41.2756C31.0917 40.8295 31.3527 40.1882 31.3527 39.292C31.3527 37.216 29.5845 36.4824 28.6496 36.3844L28.5638 36.3799H25.8219C25.3324 36.3799 24.9242 36.7345 24.851 37.223C24.7907 37.6263 24.9794 38.0052 25.3119 38.1934V45.21C25.2283 45.2574 25.1534 45.3171 25.0898 45.3859C25.1936 45.4448 25.2981 45.5029 25.4035 45.5609C25.4044 45.5609 25.4044 45.5601 25.4052 45.5601V45.5597Z" fill="white"/>
<path d="M26.671 40.9483H27.8352C27.8352 40.9483 29.2097 40.4787 29.2097 39.0008C29.2097 37.523 28.0736 37.1914 27.8209 37.1914H26.9078C26.658 37.2631 26.671 37.5382 26.671 37.5382V40.9479V40.9483ZM27.8184 38.3216H28.1234C28.2175 38.3422 28.7349 38.4942 28.7349 39.3324C28.7349 40.0372 28.2296 40.3687 28.005 40.4812H27.8184V38.322V38.3216Z" fill="white"/>
<path d="M28.2554 45.4511C28.2554 45.4511 29.8123 45.4235 29.8123 43.5312C29.8123 41.639 28.4286 41.3696 28.4286 41.3696H26.67V45.2006C26.67 45.2006 26.6641 45.3436 26.7524 45.4511H28.255H28.2554ZM27.8178 42.4999H28.6574C28.8218 42.56 29.3375 42.8306 29.3375 43.8628C29.3375 44.7879 28.8615 44.9634 28.5708 44.984H27.8178V42.5003V42.4999Z" fill="white"/>
<path d="M26.8545 47.0234H28.4056C27.5874 46.6811 26.7855 46.2977 26.0175 45.8932H25.4846C25.2989 45.8932 25.2549 45.6073 25.403 45.5608C25.298 45.5027 25.193 45.4442 25.0893 45.3857C24.9354 45.5517 24.8458 45.7729 24.8408 46.0114C25.4879 46.3644 26.1627 46.7054 26.8541 47.0234H26.8545Z" fill="white"/>
<path d="M31.2757 45.988C31.2727 46.0511 31.274 46.1149 31.2836 46.1796C31.3564 46.6681 31.7647 47.0231 32.2541 47.0231H33.6362C33.9428 47.0231 34.2172 46.8839 34.3979 46.6598C34.2904 46.5264 34.2159 46.3625 34.1887 46.18C34.1461 45.8954 34.2289 45.6235 34.3975 45.4217C34.3548 45.3706 34.308 45.3228 34.2548 45.2817V38.0814C34.3008 38.0418 34.3414 37.9965 34.3787 37.9492C34.2222 37.7494 34.1473 37.487 34.1887 37.2123C34.2143 37.0413 34.2829 36.8881 34.3795 36.7596C34.1996 36.5207 33.9177 36.3691 33.5998 36.3691H32.2541C31.7647 36.3691 31.3564 36.7238 31.2836 37.2127C31.2301 37.571 31.3727 37.9096 31.6383 38.1131V42.4548C31.8262 42.8766 31.9424 43.3787 31.9424 43.9735C31.9424 44.8533 31.6731 45.5119 31.2757 45.9885V45.988ZM31.8379 37.1699C31.6873 37.1254 31.7312 36.8362 31.9178 36.8362H33.2635C33.45 36.8362 33.4939 37.1254 33.3433 37.1699C33.0501 37.2213 33.1074 37.529 33.1074 37.529V45.2001C33.1074 45.2001 33.0869 45.5082 33.3797 45.5593C33.5303 45.6038 33.4864 45.8929 33.2998 45.8929H31.9178C31.7312 45.8929 31.6873 45.6038 31.8379 45.5593C32.1311 45.5078 32.1131 45.2001 32.1131 45.2001V37.529C32.1131 37.529 32.1311 37.2209 31.8379 37.1699Z" fill="white"/>
<path d="M31.2751 45.9882C31.6725 45.5116 31.9419 44.853 31.9419 43.9732C31.9419 43.3781 31.8252 42.876 31.6378 42.4546V45.2793C31.4203 45.4457 31.2877 45.704 31.2751 45.9882Z" fill="white"/>
<path d="M34.3782 37.9487C34.4259 38.0096 34.4807 38.0652 34.5426 38.1126V45.2791C34.4882 45.3207 34.4405 45.3693 34.397 45.4212C34.5656 45.623 34.6484 45.8949 34.6062 46.1795C34.579 46.362 34.505 46.5259 34.397 46.6598C34.5773 46.8838 34.8521 47.0231 35.1588 47.0231H36.5408C37.0303 47.0231 37.4385 46.6684 37.5113 46.1795C37.5644 45.8228 37.423 45.4846 37.1595 45.2812V42.5936H38.084C38.0957 42.5977 38.1078 42.6018 38.1187 42.6063C38.3785 42.9713 38.7206 43.0537 38.9754 43.0537L39.592 42.4465V40.6058L38.9754 39.9987C38.7202 39.9987 38.378 40.081 38.1183 40.446C38.1074 40.4501 38.0957 40.4546 38.084 40.4587H37.1591V38.4924H38.2358C38.4278 38.7383 38.6704 38.8627 38.9591 38.8627C39.1707 38.8627 39.4083 38.7914 39.5915 38.6254V38.113C39.3259 37.9095 39.1833 37.5706 39.2368 37.2122C39.2598 37.0569 39.3201 36.9173 39.4029 36.7958C39.2523 36.652 39.105 36.5491 39.0222 36.4963L38.5822 36.3687H35.1575C34.8392 36.3687 34.5572 36.5202 34.3778 36.7591C34.4744 36.888 34.543 37.0409 34.5685 37.2122C34.6095 37.4869 34.5338 37.7493 34.377 37.9487H34.3782ZM35.0174 45.1996V37.5285C35.0174 37.5285 35.0354 37.2204 34.7421 37.1694C34.5915 37.1249 34.6355 36.8357 34.822 36.8357H38.2467C38.2467 36.8357 38.811 37.1945 38.7528 37.5277C38.7282 37.669 38.7528 37.732 38.6232 37.732C38.4935 37.732 38.4676 37.3617 38.1952 37.3617H36.023C35.9979 37.4478 36.0121 37.529 36.0121 37.529V40.9258H37.8706C37.8706 40.9258 38.314 40.8121 38.4027 40.6449C38.4634 40.5308 38.5157 40.4662 38.6395 40.4662V41.9238C38.5161 41.9238 38.4634 41.8592 38.4027 41.7451C38.314 41.5778 37.8706 41.4642 37.8706 41.4642H36.0121V45.2004C36.0121 45.2004 35.9916 45.5085 36.2844 45.5596C36.435 45.6041 36.3911 45.8932 36.2045 45.8932H34.8224C34.6359 45.8932 34.592 45.6041 34.7426 45.5596C35.0358 45.5081 35.0178 45.2004 35.0178 45.2004L35.0174 45.1996Z" fill="white"/>
<path d="M34.3787 37.9488C34.5352 37.7491 34.6113 37.4867 34.5703 37.2124C34.5448 37.0414 34.4762 36.8882 34.3796 36.7593C34.2829 36.8882 34.2143 37.041 34.1888 37.2119C34.1478 37.4863 34.2227 37.7491 34.3787 37.9488Z" fill="white"/>
<path d="M34.3976 45.4213C34.229 45.6231 34.1462 45.895 34.1888 46.1796C34.216 46.3621 34.29 46.526 34.398 46.6595C34.5055 46.5256 34.5799 46.3621 34.6071 46.1792C34.6498 45.8946 34.5665 45.6231 34.398 45.4209L34.3976 45.4213Z" fill="white"/>
<path d="M39.8886 37.9955C39.8865 38.0075 39.8857 38.0182 39.8844 38.0273C39.8518 38.3008 39.7388 38.4927 39.5924 38.6249V40.6053L39.7869 40.7968V42.2545L39.5924 42.446V45.2786C39.3268 45.4821 39.1842 45.8211 39.2377 46.1794C39.3105 46.6679 39.7188 47.0226 40.2082 47.0226H41.5903L41.5999 47.0209H42.8715C43.9934 46.532 45.0455 45.889 45.9565 45.0529C45.9247 44.9161 45.8586 44.76 45.721 44.6192C45.5462 44.4396 45.3052 44.3407 45.0429 44.3407C44.559 44.3407 44.3138 44.6991 44.19 44.8976H42.2089V42.5931H43.2233C43.235 42.5972 43.2472 42.6013 43.258 42.6058C43.5178 42.9708 43.86 43.0532 44.1147 43.0532L44.9258 42.2545V40.7968L44.1147 39.9982C43.8596 39.9982 43.5174 40.0805 43.2576 40.4455C43.2467 40.4496 43.235 40.4541 43.2233 40.4582H42.2085V38.4919H43.1978C43.3898 38.7378 43.6324 38.8622 43.9211 38.8622C44.3025 38.8622 44.7736 38.6422 44.8463 38.0219L44.8497 37.9964C44.9902 37.2031 44.2227 36.6474 43.9842 36.4958L43.5446 36.3682H40.2078C39.874 36.3682 39.5811 36.5354 39.4034 36.7953C39.6849 37.0643 39.9785 37.4786 39.8878 37.9951L39.8886 37.9955ZM39.8719 36.8361H43.2087C43.2087 36.8361 43.7734 37.1948 43.7148 37.528C43.6914 37.6599 43.7148 37.7323 43.5852 37.7323C43.4555 37.7323 43.4295 37.3621 43.1572 37.3621H41.0724C41.0473 37.4481 41.0615 37.5293 41.0615 37.5293V40.9262H43.01C43.01 40.9262 43.4534 40.8125 43.5421 40.6452C43.6027 40.5312 43.655 40.4665 43.7788 40.4665V41.9242C43.6554 41.9242 43.6027 41.8595 43.5421 41.7454C43.4534 41.5782 43.01 41.4645 43.01 41.4645H41.0615V45.2008C41.0615 45.2008 41.0569 45.2811 41.0904 45.3663H44.1482C44.4205 45.3663 44.5774 44.8095 44.707 44.8095C44.8367 44.8095 44.8409 44.9186 44.8367 45.0138C44.8221 45.3515 44.2001 45.8919 44.2001 45.8919H41.2615C41.259 45.8919 41.2569 45.8936 41.2539 45.8936H39.8719C39.6853 45.8936 39.6414 45.6044 39.792 45.5599C40.0852 45.5085 40.0672 45.2008 40.0672 45.2008V37.5297C40.0672 37.5297 40.0852 37.2216 39.792 37.1705C39.6414 37.126 39.6853 36.8369 39.8719 36.8369V36.8361Z" fill="white"/>
<path d="M43.729 47.0217C44.7208 46.5056 45.4478 45.9648 45.969 45.5068C45.9761 45.464 45.9816 45.4207 45.9837 45.3775C45.9862 45.3181 45.9908 45.1966 45.9573 45.0537C45.0458 45.8899 43.9938 46.5328 42.8723 47.0217H43.729Z" fill="white"/>
<path d="M39.7873 40.7974L39.5928 40.6055V42.4466L39.7873 42.2551V40.7974Z" fill="white"/>
<path d="M39.5928 38.1127V38.6251C39.7396 38.4925 39.8525 38.301 39.8847 38.0275C39.886 38.018 39.8868 38.0073 39.8889 37.9957C39.9797 37.4792 39.686 37.0649 39.4045 36.7959C39.3217 36.917 39.2615 37.0566 39.2384 37.2123C39.1849 37.5707 39.3275 37.9097 39.5932 38.1131L39.5928 38.1127Z" fill="white"/>
<path d="M15.3068 23.2973H22.8493C22.8493 23.2973 23.2421 23.3665 23.4943 23.7393C23.7469 24.112 23.7185 24.5404 23.5646 24.6372C23.4102 24.734 23.2843 24.1652 22.8844 24.1652H19.7091V33.6716C19.7091 33.6716 19.9337 34.0506 20.2863 34.1136C20.4674 34.1684 20.4147 34.5242 20.1901 34.5242H17.8279C17.6033 34.5242 17.5506 34.1684 17.7317 34.1136C18.0844 34.0506 18.309 33.6716 18.309 33.6716V24.1652H15.1336C15.124 24.1652 15.1156 24.1668 15.1064 24.1676C15.2227 24.6323 15.3135 25.108 15.3733 25.5916C15.503 25.4919 15.5921 25.3745 15.6494 25.2979C15.6498 25.297 15.6507 25.2962 15.6511 25.2954H17.8346V33.6807L17.83 33.6819C17.3665 33.8224 17.0846 34.2837 17.1603 34.7788C17.2377 35.2862 17.6602 35.6549 18.1647 35.6549H18.4612C18.6365 35.4526 18.918 35.3118 19.3008 35.3118C19.3271 35.3118 19.3497 35.3126 19.3677 35.313H21.2798C21.4082 35.1676 21.4994 34.986 21.5312 34.7792C21.6069 34.2841 21.325 33.8228 20.8615 33.6823L20.8569 33.6811V25.2958H21.9704C22.1386 24.9873 22.4607 24.7855 22.8283 24.7855H24.4878C24.5986 24.7855 24.7049 24.8061 24.8044 24.8403C24.8086 24.839 24.8128 24.8382 24.817 24.837C24.8672 24.4407 24.7559 23.9979 24.5062 23.6285C24.0833 23.0036 23.4508 22.8648 23.3282 22.8434L23.186 22.8311H15.8155L15.5063 23.1816L15.3068 23.2981V23.2973Z" fill="white"/>
<path d="M21.2795 35.3128H19.3674C19.3498 35.3119 19.3268 35.3115 19.3005 35.3115C18.9173 35.3115 18.6362 35.4524 18.4609 35.6546H20.5265C20.8252 35.6546 21.0929 35.5232 21.2795 35.3128Z" fill="white"/>
<path d="M23.9553 25.9605V33.8004C23.9553 33.8004 23.9373 34.1151 24.2305 34.1678C24.2699 34.1798 24.295 34.209 24.3088 34.2448C24.3832 34.0792 24.5041 33.9376 24.6597 33.8395V26.6318C24.3255 26.4675 24.1239 26.1166 24.1427 25.7314C24.095 25.7471 24.0465 25.7603 23.9971 25.7677C23.9515 25.8632 23.9553 25.9605 23.9553 25.9605Z" fill="white"/>
<path d="M24.2359 34.7956C24.2191 34.6865 24.2225 34.5798 24.2396 34.4776C24.2149 34.4953 24.1861 34.5085 24.1505 34.5085H22.4911C22.3045 34.5085 22.2606 34.2132 22.4112 34.1675C22.7044 34.1152 22.7927 33.8001 22.7927 33.8001V25.9601C22.7927 25.9601 22.7044 25.6454 22.4112 25.5927C22.2962 25.5581 22.2953 25.3781 22.384 25.2949H21.9695C21.9147 25.3954 21.8758 25.5075 21.8574 25.6277C21.7955 26.0339 21.9841 26.4161 22.3179 26.606V33.8178C21.9841 34.0077 21.7959 34.3899 21.8574 34.796C21.8879 34.9966 21.977 35.1725 22.1025 35.3129H22.7601C22.963 35.3129 23.1232 35.3129 23.2867 35.35C23.4904 35.3962 23.6611 35.4999 23.7879 35.6392H24.4864C24.6132 35.6392 24.7341 35.614 24.8458 35.57C24.5283 35.4443 24.2902 35.1573 24.235 34.796L24.2359 34.7956Z" fill="white"/>
<path d="M23.2877 35.3496C23.1242 35.3125 22.964 35.3125 22.7611 35.3125H22.1035C22.2834 35.5135 22.5411 35.6387 22.8284 35.6387H23.7893C23.6625 35.4995 23.4919 35.3961 23.2882 35.3496H23.2877Z" fill="white"/>
<path d="M24.1537 25.6181C24.0738 25.6523 24.0261 25.7087 23.998 25.7676C24.0478 25.7602 24.0959 25.7474 24.1436 25.7314C24.1453 25.6968 24.1461 25.6626 24.1511 25.6276C24.1516 25.6243 24.1528 25.621 24.1537 25.6177V25.6181Z" fill="white"/>
<path d="M22.4909 25.2522H24.1503C24.1964 25.2522 24.2336 25.2703 24.2612 25.2979C24.3783 25.0812 24.572 24.9185 24.8037 24.8395C24.7038 24.8053 24.5979 24.7847 24.4871 24.7847H22.8277C22.46 24.7847 22.1379 24.9865 21.9697 25.295H22.3843C22.4119 25.2691 22.447 25.2518 22.4914 25.2518L22.4909 25.2522Z" fill="white"/>
<path d="M25.1345 26.5083C25.124 26.5174 25.1144 26.5272 25.1035 26.5359V33.8886C25.1035 33.8886 25.1056 33.8906 25.1069 33.8919C25.1274 33.84 25.1345 33.8008 25.1345 33.8008V26.5087V26.5083Z" fill="white"/>
<path d="M25.317 25.2522H26.5284C26.715 25.2522 26.7589 25.5476 26.6083 25.5933C26.5334 25.6065 26.4694 25.6468 26.415 25.6991C26.4159 25.7 31.8459 32.0678 31.8877 32.0678C31.9295 32.0678 31.9438 31.8466 31.9438 31.8466V25.7416C31.6689 25.6448 31.4384 25.5138 31.4384 25.3552C31.4384 25.1966 31.4665 25.1513 31.6769 25.1513H32.8272L37.0211 25.1583H39.5318C39.5318 25.1583 39.9187 25.2798 39.9296 25.5418H39.9317C39.9317 25.5418 39.9309 25.5451 39.9309 25.5471C39.9309 25.5488 39.9317 25.5504 39.9317 25.5525C39.9317 25.6954 39.8196 25.791 39.7138 25.8503C39.6205 25.9071 39.5318 25.9356 39.5318 25.9356H36.8388V33.7945L36.8371 33.7953V33.7973C36.8371 33.7973 36.9253 34.112 37.2186 34.1647C37.3692 34.2105 37.3252 34.5058 37.1387 34.5058H35.3718C35.1852 34.5058 35.1413 34.2105 35.2919 34.1647C35.5851 34.1124 35.6462 33.7973 35.6462 33.7973V33.7121H35.647V25.9273H35.1982V25.9327H32.8276V34.1264C32.8276 34.5684 32.7996 34.6376 32.6595 34.6376C32.5193 34.6376 32.421 34.5099 32.421 34.5099L26.1829 27.1585V33.9497C26.1829 33.9497 26.3155 34.1161 26.6083 34.1689C26.7589 34.2146 26.715 34.5099 26.5284 34.5099H25.4584C25.4709 34.603 25.4722 34.699 25.4571 34.797C25.4019 35.1582 25.1639 35.4457 24.8464 35.5709C24.9581 35.615 25.079 35.6401 25.2057 35.6401H26.8651C27.3529 35.6401 27.7607 35.2855 27.8352 34.797C27.8996 34.3736 27.6921 33.9753 27.3303 33.7953V29.6916L32.127 35.3444C32.2964 35.5532 32.6076 35.7678 32.9954 35.7678C33.975 35.7678 33.975 34.7822 33.975 34.458V27.0629H35.1718V33.8307C34.8543 34.0251 34.6778 34.3983 34.738 34.7933C34.8125 35.2818 35.2203 35.6364 35.7081 35.6364H37.475C37.9627 35.6364 38.3706 35.2818 38.445 34.7933C38.5065 34.3884 38.3191 34.0062 37.9866 33.8163V32.0517C37.7653 31.4145 37.6611 30.7811 37.6582 30.2304C37.6607 29.678 37.7653 29.0429 37.9866 28.4044V27.0662H38.6429C39.1465 26.3013 39.861 25.6221 40.8181 25.1867C40.6265 24.9586 40.358 24.8062 40.1153 24.73L39.869 24.6921H37.3595L33.1644 24.6851H32.0145C31.3765 24.6851 30.9645 25.0784 30.9645 25.6876C30.9645 25.9487 31.0645 26.2828 31.4698 26.5616V30.3066C30.5161 29.1969 29.1683 27.621 27.8143 26.0344C27.8486 25.9067 27.8569 25.7692 27.8356 25.6283C27.7611 25.1398 27.3533 24.7851 26.8655 24.7851H25.1208C25.0141 24.7851 24.9129 24.8049 24.8163 24.8362C24.8163 24.8383 24.8154 24.8408 24.8154 24.8428C25.025 24.9174 25.2007 25.0624 25.3174 25.2522H25.317Z" fill="white"/>
<path d="M24.815 24.8428C24.815 24.8408 24.8158 24.8384 24.8158 24.8364C24.8117 24.8376 24.8077 24.8384 24.8037 24.8396C24.8073 24.8408 24.8109 24.8416 24.8146 24.8428H24.815Z" fill="white"/>
<path d="M25.4575 34.7956C25.4726 34.6975 25.4718 34.6012 25.4588 34.5085H24.8694C24.6828 34.5085 24.6389 34.2132 24.7895 34.1674C24.9807 34.1332 25.0685 33.9883 25.1066 33.8911C25.1053 33.8902 25.1041 33.889 25.1032 33.8878V26.5351C25.1141 26.5264 25.1237 26.5165 25.1342 26.5075V25.9597C25.1342 25.9597 24.997 25.645 24.7042 25.5923C24.5536 25.5465 24.5975 25.2512 24.7841 25.2512H25.3174C25.2007 25.0613 25.025 24.9163 24.8154 24.8418C24.8104 24.8785 24.8062 24.9151 24.7987 24.9509C24.7347 25.2496 24.5703 25.4951 24.3361 25.6417C24.2754 25.6796 24.2102 25.7084 24.1428 25.7307C24.124 26.1158 24.3256 26.4667 24.6598 26.6311V33.8387C24.5042 33.9368 24.3833 34.0785 24.3089 34.244C24.3377 34.3202 24.3114 34.4261 24.2399 34.4772C24.2223 34.5793 24.2194 34.686 24.2361 34.7952C24.2913 35.1564 24.5293 35.4439 24.8468 35.5691C25.1643 35.4435 25.4023 35.1564 25.4575 34.7952V34.7956Z" fill="white"/>
<path d="M24.2619 25.2979C24.3473 25.3827 24.3443 25.5586 24.231 25.5932C24.2013 25.5985 24.177 25.608 24.1536 25.6183C24.1532 25.6216 24.1519 25.6249 24.1511 25.6282C24.1456 25.6632 24.1452 25.6974 24.1436 25.732C24.2109 25.7098 24.2762 25.6809 24.3368 25.643C24.5711 25.4964 24.7355 25.2509 24.7995 24.9523C24.807 24.9165 24.8112 24.8798 24.8162 24.8431C24.8124 24.8419 24.8087 24.8411 24.8049 24.8398C24.5732 24.9189 24.3799 25.0816 24.2624 25.2983L24.2619 25.2979Z" fill="white"/>
<path d="M40.4654 26.8681C40.398 26.908 40.334 26.9398 40.2788 26.9645C39.6969 27.7129 39.3418 28.7105 39.3418 29.8057C39.3418 32.1292 40.9389 34.0128 42.9095 34.0128C44.8802 34.0128 46.4772 32.1292 46.4772 29.8057C46.4772 27.4822 44.8802 25.5986 42.9095 25.5986C42.2135 25.5986 41.5642 25.8346 41.0154 26.2412C40.9234 26.4937 40.7356 26.7132 40.4658 26.8677L40.4654 26.8681ZM43.2458 26.7293C44.766 26.7293 46.002 28.2582 46.002 30.1373C46.002 32.0163 44.7655 33.5453 43.2458 33.5453C41.7261 33.5453 40.4896 32.0163 40.4896 30.1373C40.4896 28.2582 41.7261 26.7293 43.2458 26.7293Z" fill="white"/>
<path d="M42.9379 25.1512C46.8658 25.1512 47.7363 28.6395 47.7422 29.8937C47.7422 29.8892 47.7422 29.8842 47.7422 29.8801V29.9073C47.7422 29.9032 47.7422 29.8978 47.7422 29.8937C47.7363 31.1479 46.8658 34.6362 42.9379 34.6362C39.0101 34.6362 38.1396 31.1479 38.1337 29.8937C38.1337 29.8982 38.1337 29.9032 38.1337 29.9073V29.8801C38.1337 29.8842 38.1337 29.8896 38.1337 29.8937C38.1366 29.2693 38.3546 28.0908 39.0565 27.0652H38.6436C38.3609 27.494 38.1446 27.9496 37.9873 28.4035V32.0508C38.6269 33.8923 40.2499 35.7668 43.2743 35.7668C47.3456 35.7668 48.8795 32.3704 48.8896 30.2216C48.8791 28.0805 47.3456 24.6841 43.2743 24.6841C42.3201 24.6841 41.5069 24.8723 40.8184 25.1858C40.8949 25.2768 40.9585 25.3802 41.0037 25.4955C41.5471 25.2801 42.1858 25.1516 42.9375 25.1516L42.9379 25.1512ZM48.0793 30.2117V30.2389C48.0793 30.2347 48.0793 30.2294 48.0793 30.2253C48.0793 30.2207 48.0793 30.2158 48.0793 30.2117Z" fill="white"/>
<path d="M38.6436 27.0654H39.0564C39.4948 26.4253 40.1223 25.845 41.004 25.4953C40.9585 25.3804 40.8949 25.2766 40.8187 25.1855C39.8617 25.6213 39.1476 26.3001 38.6436 27.065V27.0654Z" fill="white"/>
<path d="M40.2793 26.9646C40.3345 26.9399 40.3985 26.9081 40.4659 26.8682C40.7357 26.7133 40.9235 26.4942 41.0155 26.2417C40.7432 26.4431 40.4956 26.6865 40.2793 26.9646Z" fill="white"/>
<path d="M37.6594 30.2297C37.6619 30.78 37.7665 31.4135 37.9878 32.0511V28.4038C37.7665 29.0422 37.6624 29.6774 37.6594 30.2297Z" fill="white"/>
<path d="M14.6627 19.2193C14.8656 18.7913 15.2998 18.5063 15.7632 18.6772C16.2267 18.8481 16.1979 19.3618 15.995 19.8181C15.7921 20.2745 14.9233 22.3282 14.9233 22.3282L14.551 22.5461C14.6284 22.7162 14.7012 22.8929 14.7698 23.075C15.0459 22.909 15.2914 22.8554 15.3629 22.8431L15.5052 22.8307H15.8151L15.8406 22.8019C15.8494 22.7813 16.709 20.7494 16.9065 20.305C17.0755 19.9248 17.229 19.3589 16.9993 18.8247C16.855 18.4882 16.5769 18.2295 16.2167 18.0964C16.0347 18.0293 15.8461 17.9951 15.6566 17.9951C15.0019 17.9951 14.4038 18.3988 14.0959 19.0483C13.9763 19.3008 13.8558 19.8404 13.6533 21.0785C13.8349 21.2993 14.0051 21.5423 14.1637 21.8055C14.3155 20.8256 14.5318 19.4973 14.6631 19.2205L14.6627 19.2193Z" fill="white"/>
<path d="M15.3629 22.8428C15.2914 22.8556 15.0459 22.9087 14.7698 23.0747C14.8108 23.1839 14.8501 23.2947 14.8882 23.408C15.0425 23.3219 15.1688 23.2972 15.1688 23.2972H15.3065L15.506 23.1806L15.8151 22.8301H15.5052L15.3629 22.8424V22.8428Z" fill="white"/>
<path d="M14.3545 25.6422C14.3173 25.6187 14.2851 25.589 14.2512 25.561C14.4817 27.7441 14.1324 30.1421 13.1017 31.8869C12.9335 32.1711 12.7348 32.4256 12.5156 32.6579C12.6658 32.6377 12.813 32.6266 12.9553 32.6266C13.2903 32.6266 13.6635 32.6752 14.0391 32.7786C14.073 32.7259 14.1073 32.674 14.1395 32.6196C15.2375 30.7612 15.6818 28.0975 15.3726 25.5911C15.2384 25.6941 15.0606 25.7781 14.8255 25.7781C14.659 25.7781 14.4963 25.7311 14.3545 25.6422Z" fill="white"/>
<path d="M3.87333 34.6327C3.40859 34.5347 1.84831 34.4692 1.41662 34.5672C0.369188 34.8053 0.454103 34.0116 0.782891 33.8155C1.27816 33.5865 1.41662 33.2273 1.41662 33.2273V20.3487C1.44967 20.0546 0.18848 19.6621 0.55366 19.1394C0.786237 18.8124 1.84831 19.0414 2.47912 19.1069C3.10992 19.1724 4.76975 18.8453 7.15995 19.0414C9.55014 19.2374 10.9318 19.8664 11.6747 20.3817C12.4076 20.7853 12.9991 21.5255 13.4366 22.4597C13.4441 22.4107 13.4517 22.3608 13.4596 22.3106C13.5324 21.8357 13.596 21.4303 13.6537 21.0782C13.2919 20.6387 12.8861 20.2869 12.4448 20.0369C11.6312 19.4821 10.1303 18.7877 7.56403 18.5772C7.02818 18.5331 6.47769 18.5109 5.92804 18.5109C5.06717 18.5109 4.3343 18.5652 3.79887 18.6048C3.47928 18.6283 3.2032 18.6488 3.01957 18.6488C2.97481 18.6488 2.93507 18.648 2.90077 18.6443C2.78782 18.6324 2.65982 18.6151 2.52555 18.5969C2.19383 18.5521 1.81819 18.501 1.47686 18.501C1.25767 18.501 0.590052 18.501 0.221944 19.0187C-0.225223 19.6588 0.00400761 20.3051 0.903363 20.9398C0.915493 20.9484 0.928879 20.9579 0.942265 20.9674V33.3175C0.905036 33.3509 0.851075 33.39 0.775361 33.425L0.700067 33.4646C0.227382 33.7463 -0.0164893 34.3543 0.132427 34.8794C0.250807 35.2967 0.646942 35.7428 1.40449 35.7428C1.56889 35.7428 1.7475 35.7209 1.93532 35.6785C1.93658 35.6785 2.0742 35.6501 2.52262 35.6501C3.13083 35.6501 3.82564 35.7007 4.04065 35.7461C4.26151 35.7926 5.11862 35.8952 6.22629 35.8952C6.99513 35.8952 7.97313 35.8445 8.99337 35.6624C9.11301 35.1418 9.35144 34.6784 9.66726 34.2801C7.08423 35.0364 4.17576 34.6978 3.87416 34.6339L3.87333 34.6327Z" fill="white"/>
<path d="M12.272 27.7679C12.272 23.4533 10.7118 21.1323 8.81976 20.5767C6.92777 20.021 5.36749 20.1191 3.50854 20.4131V33.0632C3.50854 33.0632 4.83624 33.5533 7.09383 33.4553C9.35101 33.3573 12.2724 32.0824 12.2724 27.7675L12.272 27.7679ZM7.39418 32.989C7.20803 32.9973 7.02063 33.0014 6.83741 33.0014C5.86109 33.0014 5.11483 32.8852 4.65554 32.786V21.4338C5.32608 21.3453 5.86736 21.3061 6.38774 21.3061C7.26408 21.3061 8.07016 21.4227 8.92434 21.6735C10.3131 22.0813 11.7973 23.9838 11.7973 28.0995C11.7973 32.2151 8.71811 32.9318 7.39418 32.989Z" fill="white"/>
<path d="M14.185 23.6276C14.2134 23.5855 14.2427 23.5464 14.2724 23.5089L13.7073 23.1147C13.8119 23.4047 13.9039 23.7075 13.9821 24.0209C14.034 23.8846 14.1009 23.7515 14.185 23.6276Z" fill="white"/>
<path d="M12.516 32.6578C12.3311 32.8539 12.1312 33.0327 11.917 33.195C12.1692 33.1282 12.4093 33.094 12.6189 33.094C12.8921 33.094 13.2782 33.1426 13.6755 33.2765C13.8052 33.12 13.9265 32.954 14.0391 32.7789C13.6634 32.6751 13.2903 32.627 12.9552 32.627C12.813 32.627 12.6658 32.6381 12.5156 32.6583L12.516 32.6578Z" fill="white"/>
<path d="M10.314 34.061C10.1015 34.1417 9.88527 34.2146 9.66608 34.2784C9.35067 34.6767 9.11182 35.1401 8.99219 35.6607C9.13734 35.6348 9.28333 35.6056 9.42973 35.5738C9.55062 34.956 9.8861 34.4502 10.3136 34.0605L10.314 34.061Z" fill="white"/>
<path d="M10.749 35.2044C11.5614 34.9169 12.3403 34.5157 13.0008 33.958C12.9129 33.9436 12.8255 33.9346 12.7393 33.9346C12.7393 33.9346 11.036 33.9354 10.749 35.2044Z" fill="white"/>
<path d="M13.9824 24.0212C14.1058 24.5134 14.1958 25.0307 14.2514 25.5612C14.2849 25.5893 14.3171 25.6193 14.3547 25.6424C14.4965 25.7314 14.6597 25.7783 14.8257 25.7783C15.0608 25.7783 15.2386 25.6943 15.3729 25.5913C15.3135 25.1082 15.2223 24.6324 15.106 24.1674C14.7283 24.1929 14.6036 24.7313 14.453 24.637C14.2987 24.5402 14.2706 24.1122 14.5233 23.739C14.5321 23.7259 14.5425 23.716 14.5517 23.7032L14.2727 23.5088C14.2426 23.5463 14.2133 23.5858 14.1853 23.6274C14.1012 23.7514 14.0347 23.8844 13.9824 24.0208V24.0212Z" fill="white"/>
<path d="M13.4366 22.4586C13.5349 22.6683 13.6253 22.887 13.7077 23.1148L14.2728 23.509C14.4293 23.3129 14.605 23.1737 14.7698 23.0744C14.7012 22.8924 14.6284 22.7157 14.551 22.5455L13.9963 22.8697C14.0168 22.7692 14.0804 22.3379 14.1632 21.8041C14.0051 21.5409 13.8349 21.2975 13.6529 21.0771C13.5952 21.4293 13.5316 21.8346 13.4588 22.3095C13.4513 22.3594 13.4433 22.4096 13.4358 22.4586H13.4366Z" fill="white"/>
<path d="M14.8878 23.4074C14.8501 23.2942 14.8108 23.183 14.7694 23.0742C14.6046 23.1735 14.4289 23.3127 14.2725 23.5088L14.5515 23.7032C14.656 23.5623 14.7782 23.4688 14.8878 23.4074Z" fill="white"/>
</svg>
