<svg width="25" height="24" viewBox="0 0 25 24" fill="none" xmlns="http://www.w3.org/2000/svg">
<path fill-rule="evenodd" clip-rule="evenodd" d="M21.3976 4.17084C21.647 4.01014 22.0628 4.01014 22.3123 4.17084C22.5617 4.33154 22.728 4.65295 22.6449 4.97435C22.3954 6.09927 21.8133 7.14383 20.9818 8.02769V8.42945C20.9818 12.8488 18.9861 16.5449 15.4104 18.4733C13.581 19.5179 11.5853 20 9.5064 20C7.42752 20 5.18234 19.4375 3.10347 18.3126C2.77085 18.1519 2.60454 17.7502 2.68769 17.4288C2.77085 17.1074 3.10347 16.8663 3.51924 16.8663C4.93288 16.8663 6.34651 16.6253 7.59383 16.0628C1.27406 12.3666 4.35079 5.37611 4.43395 5.29576C4.5171 5.0547 4.76657 4.81365 5.09919 4.81365C5.43181 4.81365 5.68127 4.894 5.84758 5.13505C7.26121 7.06348 9.42324 8.26874 11.8347 8.42945C11.8347 7.14383 12.4168 5.93856 13.4147 5.0547C14.3294 4.33154 15.4936 3.92979 16.7409 4.01014C17.8219 4.09049 18.7366 4.49225 19.485 5.13505C20.1502 4.894 20.8155 4.5726 21.3976 4.17084ZM19.2344 7.94723C19.2344 7.70617 19.3176 7.38477 19.4839 7.22407C19.6502 6.98302 19.8165 6.82232 19.9828 6.66162L19.9828 6.66161C19.8997 6.70179 19.7957 6.72187 19.6918 6.74196C19.5878 6.76205 19.4839 6.78214 19.4007 6.82231C19.1513 6.90266 18.8186 6.82231 18.5692 6.58126C18.0702 6.0188 17.3218 5.6974 16.5735 5.61705C15.8251 5.53669 15.0767 5.77775 14.4946 6.25985C13.8293 6.82231 13.4967 7.62582 13.4967 8.42933V9.23284C13.4967 9.6346 13.0809 10.0364 12.6652 10.0364C9.92106 10.1167 7.34326 9.07214 5.51385 7.30442C5.01492 9.3132 4.84861 13.2504 9.6716 15.3395C9.92106 15.4199 10.1705 15.6609 10.1705 15.9823C10.1705 16.3037 10.0874 16.5448 9.75475 16.7055C8.84005 17.3483 7.84219 17.7501 6.76117 18.0715C9.50529 18.7143 12.2494 18.3929 14.5777 17.1072C17.5713 15.4199 19.3176 12.2862 19.3176 8.42933C19.3176 8.26863 19.3176 8.10793 19.2344 7.94723Z" fill="black"/>
</svg>
