<svg width="15" height="15" viewBox="0 0 15 15" fill="none" xmlns="http://www.w3.org/2000/svg">
<path fill-rule="evenodd" clip-rule="evenodd" d="M12.8402 2.50241C12.9899 2.40599 13.2393 2.40599 13.389 2.50241C13.5387 2.59883 13.6385 2.79167 13.5886 2.98451C13.4389 3.65946 13.0897 4.2862 12.5907 4.81652V5.05757C12.5907 7.70916 11.3933 9.92685 9.2479 11.0839C8.15025 11.7106 6.95282 11.9999 5.7055 11.9999C4.45817 11.9999 3.11107 11.6624 1.86374 10.9875C1.66417 10.8911 1.56438 10.65 1.61428 10.4572C1.66417 10.2643 1.86374 10.1197 2.11321 10.1197C2.96139 10.1197 3.80957 9.97506 4.55796 9.63758C0.766097 7.41989 2.61214 3.22557 2.66203 3.17736C2.71192 3.03272 2.8616 2.88809 3.06117 2.88809C3.26074 2.88809 3.41042 2.9363 3.51021 3.08093C4.35839 4.23799 5.65561 4.96115 7.1025 5.05757C7.1025 4.2862 7.45175 3.56304 8.05047 3.03272C8.59929 2.59883 9.29779 2.35778 10.0462 2.40599C10.6948 2.4542 11.2436 2.69525 11.6927 3.08093C12.0918 2.9363 12.4909 2.74346 12.8402 2.50241ZM11.5423 4.76824C11.5423 4.62361 11.5922 4.43076 11.692 4.33434C11.7918 4.18971 11.8916 4.09329 11.9913 3.99687L11.9913 3.99687C11.9415 4.02097 11.8791 4.03303 11.8167 4.04508C11.7544 4.05713 11.692 4.06918 11.6421 4.09329C11.4924 4.1415 11.2928 4.09329 11.1432 3.94866C10.8438 3.61118 10.3948 3.41834 9.94573 3.37013C9.4967 3.32192 9.04766 3.46655 8.69841 3.75582C8.29926 4.09329 8.09969 4.5754 8.09969 5.0575V5.53961C8.09969 5.78066 7.85023 6.02172 7.60076 6.02172C5.9543 6.06993 4.40762 5.44319 3.30997 4.38255C3.01061 5.58782 2.91083 7.95014 5.80462 9.20362C5.9543 9.25183 6.10398 9.39646 6.10398 9.5893C6.10398 9.78215 6.05408 9.92678 5.85451 10.0232C5.30569 10.4089 4.70697 10.6499 4.05836 10.8428C5.70483 11.2285 7.3513 11.0356 8.7483 10.2643C10.5444 9.25183 11.5922 7.37161 11.5922 5.0575C11.5922 4.96108 11.5922 4.86466 11.5423 4.76824Z" fill="white"/>
</svg>
