<svg width="25" height="24" viewBox="0 0 25 24" fill="none" xmlns="http://www.w3.org/2000/svg">
<path fill-rule="evenodd" clip-rule="evenodd" d="M2.97056 21.7C3.17056 21.9 3.37056 22 3.67056 22H3.97056L9.27056 20.2C10.4706 20.7 11.8706 21 13.1706 21C16.7706 21 20.0706 19 21.6706 15.8C22.3706 14.4 22.6706 13 22.6706 11.5V10.9C22.3706 6.1 18.5706 2.3 13.6706 2H13.1706C11.7706 2 10.2706 2.3 8.97056 3C5.67056 4.6 3.67056 7.9 3.67056 11.5C3.67056 12.8 3.97056 14.2 4.57056 15.4L2.77056 20.7C2.57056 21 2.67056 21.4 2.97056 21.7ZM9.87056 4.8C10.8706 4.3 11.9706 4 13.1706 4H13.5706C17.4706 4.2 20.4706 7.2 20.6706 11V11.6C20.6706 12.7 20.3706 13.9 19.8706 14.9C18.5706 17.4 16.0706 19 13.1706 19C12.0706 19 10.8706 18.7 9.87056 18.2C9.57056 18 9.37056 18 9.07056 18.1L5.27056 19.4L6.57056 15.6C6.57056 15.3 6.57056 15 6.47056 14.8C5.97056 13.8 5.67056 12.7 5.67056 11.5C5.67056 8.6 7.27056 6.1 9.87056 4.8Z" fill="black"/>
<path d="M17.4165 13.7775V15.09C17.417 15.2118 17.392 15.3324 17.3432 15.4441C17.2944 15.5557 17.2228 15.6559 17.133 15.7383C17.0433 15.8207 16.9373 15.8834 16.8218 15.9224C16.7064 15.9615 16.5841 15.976 16.4628 15.965C15.1165 15.8187 13.8233 15.3587 12.6871 14.6219C11.6301 13.9502 10.7338 13.054 10.0621 11.9969C9.32274 10.8555 8.86261 9.55606 8.719 8.20375C8.70807 8.08277 8.72245 7.96083 8.76122 7.84571C8.8 7.73059 8.86232 7.6248 8.94421 7.53508C9.02611 7.44537 9.12579 7.37369 9.23691 7.3246C9.34803 7.27552 9.46815 7.25011 9.58963 7.25H10.9021C11.1145 7.24791 11.3203 7.3231 11.4813 7.46155C11.6423 7.59999 11.7474 7.79226 11.7771 8.0025C11.8325 8.42253 11.9353 8.83494 12.0834 9.23187C12.1422 9.38847 12.155 9.55865 12.1201 9.72226C12.0852 9.88587 12.0041 10.036 11.8865 10.155L11.3309 10.7106C11.9537 11.8059 12.8606 12.7128 13.9559 13.3356L14.5115 12.78C14.6305 12.6624 14.7806 12.5813 14.9442 12.5464C15.1079 12.5115 15.278 12.5243 15.4346 12.5831C15.8316 12.7312 16.244 12.834 16.664 12.8894C16.8765 12.9194 17.0706 13.0264 17.2094 13.1902C17.3481 13.3539 17.4218 13.5629 17.4165 13.7775Z" fill="black"/>
</svg>
